<?xml version="1.0" standalone="no"?>
<!DOCTYPE svg PUBLIC "-//W3C//DTD SVG 1.1//EN" "http://www.w3.org/Graphics/SVG/1.1/DTD/svg11.dtd" >
<svg xmlns="http://www.w3.org/2000/svg">
<metadata>Generated by MAGEBIG</metadata>
<defs>
<font id="mbicon" horiz-adv-x="1024">
<font-face units-per-em="1024" ascent="1024" descent="0" />
<missing-glyph horiz-adv-x="1024" />
<glyph unicode="&#x20;" horiz-adv-x="0" d="" />
<glyph unicode="&#xe032;" glyph-name="pencil2" d="M0 16.672c0-8.832 7.168-16 16-16h995.552c2.144 0 4.224 0.416 6.176 1.248s3.712 2.016 5.184 3.488c0.032 0.032 0.064 0.032 0.096 0.064 0.096 0.096 0.096 0.288 0.224 0.384 1.632 1.76 2.688 3.904 3.424 6.24 0.224 0.736 0.32 1.44 0.448 2.208 0.128 0.8 0.48 1.504 0.48 2.336 0 1.28-0.448 2.4-0.736 3.584-0.096 0.448 0.096 0.896-0.064 1.344l-101.12 310.88c-0.768 2.4-2.112 4.608-3.904 6.368l-547.744 547.776c-0.576 0.896-0.992 1.856-1.76 2.656l-119.648 119.648c-19.424 19.424-51.040 19.424-70.496 0l-167.52-167.52c-9.408-9.408-14.592-21.92-14.592-35.232s5.184-25.856 14.592-35.264l116.992-116.992c0.576-0.864 0.96-1.856 1.728-2.624l546.88-550.56c1.888-1.92 4.192-3.296 6.784-4.064l214.816-64h-885.792c-8.832 0.032-16-7.136-16-15.968zM203.584 698.848l501.984-495.552-18.464-64.064-519.84 523.296 36.32 36.32zM730.112 224l-503.936 497.44 77.984 77.984 499.424-500.736v-74.688h-73.472zM823.52 324l-496.736 498.048 33.248 33.248 518.752-518.752-55.264-12.544zM735.616 192h83.968c8.832 0 16 7.168 16 16v85.92l64.224 14.592 87.136-267.84-271.616 80.928 20.288 70.4zM32 806.144c0 4.768 1.856 9.216 5.216 12.608l167.52 167.52c6.944 6.944 18.24 6.976 25.248 0l107.904-107.904-192.736-192.736-107.904 107.904c-3.392 3.36-5.248 7.84-5.248 12.608z" />
<glyph unicode="&#xe602;" glyph-name="home3" d="M25.592 409.6c-6.125 0-12.269 2.184-17.166 6.618-10.485 9.485-11.294 25.674-1.808 36.158l452.048 499.632c14.053 15.531 32.995 24.086 53.334 24.086 0 0 0 0 0 0 20.339 0 39.28-8.554 53.333-24.086l452.050-499.634c9.486-10.485 8.677-26.674-1.808-36.158-10.485-9.488-26.674-8.677-36.158 1.808l-452.050 499.635c-4.222 4.667-9.68 7.235-15.366 7.235s-11.146-2.57-15.368-7.237l-452.048-499.632c-5.053-5.587-12.010-8.426-18.992-8.426zM793.6 0h-204.8c-14.139 0-25.6 11.461-25.6 25.6v179.2h-102.4v-179.2c0-14.139-11.462-25.6-25.6-25.6h-204.8c-42.347 0-76.8 34.453-76.8 76.8v409.6c0 14.139 11.462 25.6 25.6 25.6s25.6-11.461 25.6-25.6v-409.6c0-14.115 11.485-25.6 25.6-25.6h179.2v179.2c0 14.139 11.462 25.6 25.6 25.6h153.6c14.139 0 25.6-11.461 25.6-25.6v-179.2h179.2c14.115 0 25.6 11.485 25.6 25.6v409.6c0 14.139 11.461 25.6 25.6 25.6s25.6-11.461 25.6-25.6v-409.6c0-42.347-34.453-76.8-76.8-76.8z" />
<glyph unicode="&#xe604;" glyph-name="home5" d="M25.592 409.6c-6.125 0-12.269 2.184-17.166 6.618-10.485 9.485-11.294 25.674-1.808 36.158l452.048 499.632c14.053 15.531 32.995 24.086 53.334 24.086 0 0 0 0 0 0 20.339 0 39.28-8.554 53.333-24.086l151.802-167.781-0.334 60.432c-0.037 6.814 2.643 13.362 7.448 18.194 4.805 4.83 11.338 7.547 18.152 7.547h102.4c14.139 0 25.6-11.462 25.6-25.6v-229.97l146.982-162.456c9.486-10.485 8.677-26.674-1.808-36.158-10.485-9.488-26.674-8.677-36.158 1.808l-153.6 169.766c-4.259 4.707-6.618 10.829-6.618 17.176v214.234h-51.058l0.563-101.691c0.058-10.613-6.437-20.162-16.331-24.005-9.894-3.84-21.133-1.182-28.251 6.688l-196.755 217.467c-4.222 4.667-9.68 7.235-15.366 7.235s-11.146-2.57-15.368-7.237l-452.048-499.632c-5.053-5.587-12.010-8.426-18.992-8.426zM793.6 0h-563.2c-42.347 0-76.8 34.453-76.8 76.8v409.6c0 14.139 11.462 25.6 25.6 25.6s25.6-11.461 25.6-25.6v-409.6c0-14.115 11.485-25.6 25.6-25.6h563.2c14.115 0 25.6 11.485 25.6 25.6v409.6c0 14.139 11.461 25.6 25.6 25.6s25.6-11.461 25.6-25.6v-409.6c0-42.347-34.453-76.8-76.8-76.8z" />
<glyph unicode="&#xe60d;" glyph-name="pencil" d="M978.101 978.102c-28.77 28.768-67.018 44.611-107.701 44.611-40.685 0-78.933-15.843-107.701-44.611l-652.8-652.8c-2.645-2.645-4.678-5.837-5.957-9.354l-102.4-281.6c-3.4-9.347-1.077-19.818 5.957-26.85 4.885-4.888 11.43-7.499 18.104-7.499 2.933 0 5.891 0.502 8.744 1.541l281.6 102.4c3.515 1.28 6.709 3.312 9.354 5.958l652.8 652.8c28.768 28.768 44.613 67.018 44.613 107.702s-15.843 78.933-44.613 107.701zM293.114 150.117l-224.709-81.71 81.712 224.707 566.683 566.683 142.997-142.997-566.683-566.683zM941.899 798.902l-45.899-45.899-142.997 142.997 45.899 45.899c19.098 19.098 44.49 29.614 71.498 29.614s52.4-10.518 71.499-29.616c19.098-19.098 29.616-44.49 29.616-71.498s-10.52-52.4-29.616-71.498z" />
<glyph unicode="&#xe613;" glyph-name="pencil5" d="M978.099 978.102c-28.768 28.768-67.016 44.611-107.699 44.611-40.685 0-78.933-15.843-107.699-44.611l-499.2-499.2c-2.645-2.645-4.678-5.837-5.957-9.357l-102.4-281.6c-3.4-9.347-1.077-19.818 5.957-26.848 4.885-4.89 11.43-7.501 18.104-7.501 2.933 0 5.891 0.501 8.744 1.541l281.6 102.4c3.515 1.28 6.709 3.312 9.354 5.96l499.2 499.2c28.766 28.768 44.614 67.018 44.614 107.702-0.003 40.686-15.846 78.934-44.618 107.702zM446.714 303.717l-224.709-81.71 81.712 224.706 413.083 413.085 142.997-142.997-413.083-413.083zM941.901 798.902l-45.901-45.899-142.997 142.997 45.901 45.899c19.096 19.098 44.488 29.614 71.496 29.614s52.4-10.518 71.501-29.616c19.096-19.098 29.614-44.49 29.614-71.498s-10.52-52.4-29.614-71.498zM896 0h-819.2c-42.347 0-76.8 34.451-76.8 76.8v819.2c0 42.347 34.453 76.8 76.8 76.8h512c14.139 0 25.6-11.462 25.6-25.6s-11.461-25.6-25.6-25.6h-512c-14.115 0-25.6-11.485-25.6-25.6v-819.2c0-14.115 11.485-25.6 25.6-25.6h819.2c14.115 0 25.6 11.485 25.6 25.6v512c0 14.138 11.461 25.6 25.6 25.6s25.6-11.462 25.6-25.6v-512c0-42.349-34.451-76.8-76.8-76.8z" />
<glyph unicode="&#xe620;" glyph-name="paint-roller" d="M896 819.2h-25.6v25.6c0 42.347-34.451 76.8-76.8 76.8h-716.8c-42.347 0-76.8-34.453-76.8-76.8v-102.4c0-42.347 34.453-76.8 76.8-76.8h716.8c42.349 0 76.8 34.453 76.8 76.8v25.6h25.6c14.115 0 25.6-11.485 25.6-25.6v-102.4c0-14.115-11.485-25.6-25.6-25.6h-409.6c-42.347 0-76.8-34.453-76.8-76.8v-81.203c-29.797-10.568-51.2-39.026-51.2-72.397v-256c0-42.347 34.453-76.8 76.8-76.8s76.8 34.453 76.8 76.8v256c0 33.371-21.403 61.829-51.2 72.397v81.203c0 14.115 11.485 25.6 25.6 25.6h409.6c42.347 0 76.8 34.453 76.8 76.8v102.4c0 42.347-34.453 76.8-76.8 76.8zM819.2 742.4c0-14.115-11.485-25.6-25.6-25.6h-716.8c-14.115 0-25.6 11.485-25.6 25.6v102.4c0 14.115 11.485 25.6 25.6 25.6h716.8c14.115 0 25.6-11.485 25.6-25.6v-102.4zM460.8 128c0-14.115-11.485-25.6-25.6-25.6s-25.6 11.485-25.6 25.6v256c0 14.115 11.485 25.6 25.6 25.6s25.6-11.485 25.6-25.6v-256z" />
<glyph unicode="&#xe626;" glyph-name="palette" d="M332.8 614.4c-42.347 0-76.8 34.453-76.8 76.8s34.453 76.8 76.8 76.8 76.8-34.453 76.8-76.8-34.453-76.8-76.8-76.8zM332.8 716.8c-14.115 0-25.6-11.485-25.6-25.6s11.485-25.6 25.6-25.6 25.6 11.485 25.6 25.6-11.485 25.6-25.6 25.6zM179.2 460.8c-42.347 0-76.8 34.451-76.8 76.8 0 42.347 34.453 76.8 76.8 76.8s76.8-34.453 76.8-76.8c0-42.349-34.453-76.8-76.8-76.8zM179.2 563.2c-14.115 0-25.6-11.485-25.6-25.6s11.485-25.6 25.6-25.6 25.6 11.485 25.6 25.6-11.485 25.6-25.6 25.6zM537.6 665.6c-42.347 0-76.8 34.453-76.8 76.8s34.453 76.8 76.8 76.8c42.349 0 76.8-34.453 76.8-76.8s-34.451-76.8-76.8-76.8zM537.6 768c-14.115 0-25.6-11.485-25.6-25.6s11.485-25.6 25.6-25.6 25.6 11.485 25.6 25.6-11.485 25.6-25.6 25.6zM512 51.2c-135.947 0-263.949 44.744-360.427 125.987-47.341 39.866-84.562 86.392-110.627 138.288-27.17 54.094-40.946 111.603-40.946 170.925s13.776 116.83 40.947 170.925c26.066 51.896 63.286 98.422 110.627 138.288 96.477 81.245 224.478 125.987 360.426 125.987s263.949-44.742 360.427-125.987c47.341-39.866 84.562-86.392 110.627-138.288 27.17-54.094 40.946-111.603 40.946-170.925 0-94.829-42.234-128.618-81.758-128.618-33.035 0-67.040 23.126-93.296 63.448-16.571 25.461-34.080 39.48-49.301 39.48-5.082 0-10.088-1.518-15.306-4.642-28.771-17.226-11.758-63.736 0.946-89.928 41.061-84.669 44.467-158.632 9.85-213.891-42.002-67.051-137.262-101.050-283.134-101.050zM512 870.4c-254.086 0-460.8-172.262-460.8-384s206.714-384 460.8-384c69.928 0 126.646 8.144 168.578 24.203 33.24 12.731 57.184 30.504 71.166 52.827 31.298 49.963 10.461 116.962-12.53 164.368-49.166 101.374-3.214 143.006 18.826 156.202 13.206 7.902 27.203 11.91 41.605 11.91 23.435 0 58.456-10.886 92.211-62.747 19.309-29.656 39.211-40.181 50.386-40.181 18.277 0 30.558 31.114 30.558 77.418 0 211.738-206.714 384-460.8 384zM563.2 204.8c-56.464 0-102.4 45.936-102.4 102.4s45.936 102.4 102.4 102.4c56.464 0 102.4-45.936 102.4-102.4s-45.936-102.4-102.4-102.4zM563.2 358.4c-28.232 0-51.2-22.968-51.2-51.2s22.968-51.2 51.2-51.2 51.2 22.968 51.2 51.2-22.968 51.2-51.2 51.2z" />
<glyph unicode="&#xe627;" glyph-name="color-sampler" d="M691.2 563.2c-42.349 0-76.8 34.453-76.8 76.8s34.451 76.8 76.8 76.8 76.8-34.453 76.8-76.8-34.451-76.8-76.8-76.8zM691.2 665.6c-14.115 0-25.6-11.485-25.6-25.6s11.485-25.6 25.6-25.6 25.6 11.485 25.6 25.6-11.485 25.6-25.6 25.6zM358.4 72.47c-20.554 0-39.84 7.966-54.304 22.43l-260.395 260.395c-14.466 14.464-22.432 33.75-22.432 54.304s7.966 39.84 22.434 54.306l490.794 490.792c14.464 14.466 33.75 22.432 54.304 22.432s39.84-7.966 54.304-22.432l260.394-260.392c29.944-29.944 29.944-78.667 0.002-108.611l-490.794-490.794c-14.466-14.466-33.752-22.43-54.306-22.43zM588.8 925.93c-6.878 0-13.306-2.64-18.101-7.435l-490.794-490.794c-4.795-4.795-7.435-11.224-7.435-18.101s2.64-13.306 7.435-18.099l260.394-260.397c4.795-4.794 11.224-7.434 18.101-7.434s13.307 2.64 18.102 7.435l490.794 490.792c9.979 9.982 9.979 26.224 0 36.205l-260.395 260.392c-4.795 4.795-11.222 7.435-18.101 7.435zM574.595 0.986c-15.034 0-29.726 4.552-42.49 13.325l-60.21 41.394c-11.651 8.010-14.602 23.949-6.592 35.598 8.010 11.651 23.947 14.605 35.598 6.592l60.21-41.394c5.456-3.75 11.971-5.102 18.325-3.822 6.363 1.288 11.832 5.067 15.4 10.645l279.6 436.875c7.622 11.909 23.458 15.379 35.363 7.763 11.907-7.622 15.382-23.453 7.763-35.363l-279.6-436.875c-11.114-17.366-28.293-29.166-48.371-33.229-4.998-1.008-10.018-1.509-14.997-1.509zM790.802 36.774c-6.112 0-12.202 0.973-18.098 2.939l-38.4 12.8c-13.413 4.47-20.662 18.966-16.19 32.381 4.47 13.411 18.966 20.664 32.381 16.19l38.4-12.8c0.699-0.234 2.826-0.939 6.466 1.011 4.357 2.331 9.957 8.293 12.613 18.034l63.328 232.205c3.72 13.64 17.794 21.675 31.434 17.963 13.64-3.72 21.683-17.794 17.963-31.434l-63.328-232.205c-5.976-21.912-19.773-40.030-37.85-49.704-9.152-4.898-18.962-7.381-28.718-7.381z" />
<glyph unicode="&#xe643;" glyph-name="wind" d="M998.4 256h-409.6c-14.139 0-25.6 11.461-25.6 25.6s11.461 25.6 25.6 25.6h409.6c14.139 0 25.6-11.461 25.6-25.6s-11.461-25.6-25.6-25.6zM947.2 512h-435.2c-84.696 0-153.6 68.904-153.6 153.6s68.904 153.6 153.6 153.6c75.946 0 141.309-56.586 152.042-131.622 2.002-13.997 14.978-23.717 28.966-21.717 13.995 2.002 23.718 14.971 21.717 28.966-6.914 48.333-31.059 92.73-67.99 125.013-37.296 32.605-85.146 50.56-134.734 50.56-112.928 0-204.8-91.872-204.8-204.8 0-61.109 26.912-116.043 69.498-153.6h-248.698c-42.347 0-76.8 34.453-76.8 76.8s34.453 76.8 76.8 76.8c27.334 0 52.83-14.72 66.539-38.414 7.078-12.237 22.739-16.421 34.978-9.339 12.238 7.080 16.419 22.739 9.339 34.978-22.829 39.462-65.307 63.976-110.856 63.976-70.579 0-128-57.421-128-128s57.421-128 128-128h819.2c14.139 0 25.6 11.461 25.6 25.6s-11.461 25.6-25.6 25.6zM230.4 153.6c-70.579 0-128 57.421-128 128s57.421 128 128 128h563.2c14.139 0 25.6-11.461 25.6-25.6s-11.461-25.6-25.6-25.6h-563.2c-42.347 0-76.8-34.453-76.8-76.8s34.453-76.8 76.8-76.8c27.336 0 52.834 14.72 66.542 38.418 7.080 12.237 22.738 16.419 34.979 9.341 12.238-7.080 16.419-22.741 9.339-34.978-22.83-39.466-65.31-63.981-110.861-63.981z" />
<glyph unicode="&#xe644;" glyph-name="fan" d="M486.4 51.2c-129.922 0-252.067 50.594-343.936 142.464s-142.464 214.014-142.464 343.936c0 129.923 50.595 252.067 142.464 343.936s214.013 142.464 343.936 142.464c129.922 0 252.067-50.595 343.936-142.464s142.464-214.014 142.464-343.936-50.594-252.067-142.464-343.936c-91.869-91.87-214.014-142.464-343.936-142.464zM486.4 972.8c-239.97 0-435.2-195.23-435.2-435.2s195.23-435.2 435.2-435.2 435.2 195.23 435.2 435.2-195.23 435.2-435.2 435.2zM814.774 591.899c-6.488 39.589-19.952 77.267-40.115 112.122-7.082 12.24-22.742 16.419-34.978 9.341-12.238-7.080-16.421-22.739-9.341-34.978 11.899-20.566 21.026-42.299 27.33-64.925-5.013 0.597-10.101 0.941-15.27 0.941h-153.67c-2.136 2.84-4.4 5.576-6.762 8.227 54.851 42.058 83.632 100.533 83.632 170.973 0 70.579-57.421 128-128 128-43.734 0-82.4-22.061-105.499-55.626-39.589-6.488-77.266-19.952-112.122-40.115-12.238-7.080-16.421-22.739-9.341-34.978 4.744-8.202 13.342-12.786 22.184-12.786 4.349 0 8.758 1.11 12.795 3.445 20.566 11.898 42.299 21.024 64.925 27.328-0.598-5.011-0.942-10.099-0.942-15.269v-153.669c-2.84-2.136-5.576-4.4-8.226-6.762-42.059 54.848-100.534 83.63-170.974 83.63-70.579 0-128-57.421-128-128 0-43.734 22.061-82.4 55.626-105.499 6.488-39.589 19.952-77.267 40.115-112.122 4.746-8.203 13.342-12.786 22.184-12.786 4.349 0 8.76 1.11 12.795 3.445 12.238 7.080 16.421 22.741 9.341 34.978-11.898 20.566-21.026 42.299-27.328 64.925 5.011-0.598 10.099-0.942 15.269-0.942h153.669c2.136-2.838 4.4-5.576 6.762-8.227-54.85-42.056-83.632-100.531-83.632-170.971 0-70.579 57.421-128 128-128 43.734 0 82.402 22.061 105.501 55.626 39.587 6.488 77.266 19.952 112.12 40.115 12.238 7.080 16.421 22.741 9.341 34.978-7.082 12.24-22.742 16.419-34.978 9.341-20.566-11.899-42.299-21.026-64.925-27.33 0.598 5.013 0.942 10.099 0.942 15.27v153.67c2.838 2.136 5.576 4.4 8.227 6.762 42.056-54.851 100.531-83.632 170.971-83.632 70.579 0 128 57.421 128 128 0 43.734-22.061 82.402-55.626 105.499zM486.4 460.8c-42.347 0-76.8 34.453-76.8 76.8s34.453 76.8 76.8 76.8c42.347 0 76.8-34.453 76.8-76.8s-34.453-76.8-76.8-76.8zM460.8 793.6c0 42.347 34.453 76.8 76.8 76.8 42.349 0 76.8-34.453 76.8-76.8 0-59.304-25.539-106.037-75.928-139.114-15.92 7.12-33.534 11.114-52.072 11.114-8.765 0-17.326-0.89-25.6-2.576v130.576zM230.4 512c-42.347 0-76.8 34.453-76.8 76.8s34.453 76.8 76.8 76.8c59.306 0 106.038-25.539 139.114-75.928-7.12-15.922-11.114-33.534-11.114-52.072 0-8.765 0.89-17.326 2.576-25.6h-130.576zM512 281.6c0-42.347-34.453-76.8-76.8-76.8s-76.8 34.453-76.8 76.8c0 59.304 25.539 106.038 75.928 139.114 15.92-7.12 33.533-11.114 52.072-11.114 8.765 0 17.326 0.89 25.6 2.574v-130.574zM742.4 409.6c-59.304 0-106.038 25.539-139.114 75.928 7.12 15.92 11.114 33.533 11.114 52.072 0 8.765-0.89 17.326-2.574 25.6h130.574c42.347 0 76.8-34.453 76.8-76.8 0-42.349-34.453-76.8-76.8-76.8z" />
<glyph unicode="&#xe672;" glyph-name="cog" d="M390.71 15.245c-2.109 0-4.248 0.262-6.378 0.81-45.976 11.803-90.149 30.042-131.291 54.21-11.923 7.003-16.13 22.21-9.501 34.344 8.15 14.925 12.459 31.866 12.459 48.992 0 56.464-45.936 102.4-102.4 102.4-17.125 0-34.066-4.309-48.992-12.459-12.133-6.627-27.339-2.421-34.342 9.501-24.17 41.142-42.408 85.315-54.211 131.293-3.333 12.989 3.92 26.349 16.629 30.629 41.699 14.037 69.717 53.034 69.717 97.037s-28.018 83-69.718 97.040c-12.707 4.278-19.962 17.638-16.627 30.627 11.803 45.976 30.042 90.149 54.211 131.291 7.003 11.923 22.21 16.13 34.344 9.501 14.923-8.15 31.864-12.459 48.99-12.459 56.464 0 102.4 45.936 102.4 102.4 0 17.126-4.309 34.067-12.459 48.99-6.629 12.134-2.422 27.341 9.501 34.344 41.141 24.168 85.314 42.408 131.291 54.211 12.994 3.334 26.349-3.92 30.627-16.627 14.040-41.701 53.037-69.718 97.040-69.718s83 28.018 97.038 69.717c4.28 12.71 17.645 19.965 30.629 16.629 45.976-11.802 90.15-30.042 131.293-54.211 11.922-7.003 16.128-22.208 9.501-34.342-8.152-14.926-12.461-31.867-12.461-48.992 0-56.464 45.936-102.4 102.4-102.4 17.126 0 34.067 4.309 48.992 12.459 12.138 6.629 27.341 2.421 34.344-9.501 24.166-41.141 42.406-85.314 54.21-131.291 3.334-12.989-3.918-26.349-16.627-30.627-41.701-14.040-69.718-53.037-69.718-97.040s28.018-83 69.718-97.038c12.707-4.28 19.962-17.638 16.627-30.629-11.803-45.976-30.042-90.15-54.21-131.291-7.005-11.925-22.208-16.128-34.344-9.502-14.926 8.152-31.867 12.461-48.992 12.461-56.464 0-102.4-45.936-102.4-102.4 0-17.125 4.309-34.066 12.461-48.992 6.627-12.136 2.421-27.341-9.502-34.344-41.141-24.166-85.314-42.406-131.291-54.21-12.992-3.336-26.349 3.918-30.629 16.627-14.038 41.701-53.035 69.718-97.038 69.718s-83-28.018-97.040-69.718c-3.578-10.624-13.502-17.437-24.25-17.437zM512 153.6c57.715 0 109.693-32.138 135.917-82.029 26.637 8.218 52.507 18.875 77.299 31.846-5.541 16.077-8.416 33.075-8.416 50.182 0 84.696 68.904 153.6 153.6 153.6 17.107 0 34.106-2.875 50.181-8.418 12.971 24.792 23.63 50.662 31.846 77.299-49.89 26.226-82.027 78.203-82.027 135.918s32.138 109.691 82.029 135.918c-8.218 26.637-18.875 52.506-31.846 77.299-16.077-5.542-33.074-8.418-50.182-8.418-84.696 0-153.6 68.904-153.6 153.6 0 17.107 2.875 34.106 8.418 50.181-24.792 12.971-50.662 23.63-77.299 31.846-26.226-49.89-78.203-82.027-135.918-82.027s-109.691 32.138-135.917 82.027c-26.637-8.216-52.507-18.874-77.299-31.846 5.542-16.075 8.416-33.072 8.416-50.181 0-84.696-68.904-153.6-153.6-153.6-17.109 0-34.106 2.874-50.181 8.418-12.973-24.794-23.63-50.662-31.846-77.299 49.89-26.227 82.027-78.203 82.027-135.918s-32.138-109.693-82.027-135.917c8.216-26.637 18.875-52.507 31.846-77.299 16.075 5.541 33.074 8.416 50.181 8.416 84.696 0 153.6-68.904 153.6-153.6 0-17.109-2.875-34.106-8.418-50.181 24.794-12.971 50.662-23.63 77.299-31.846 26.227 49.89 78.203 82.027 135.918 82.027zM512 358.4c-84.696 0-153.6 68.904-153.6 153.6s68.904 153.6 153.6 153.6 153.6-68.904 153.6-153.6-68.904-153.6-153.6-153.6zM512 614.4c-56.464 0-102.4-45.936-102.4-102.4s45.936-102.4 102.4-102.4c56.464 0 102.4 45.936 102.4 102.4s-45.936 102.4-102.4 102.4z" />
<glyph unicode="&#xe67b;" glyph-name="shovel" d="M1001.506 847.904l-153.6 153.602c-14.506 14.507-33.792 22.494-54.306 22.494s-39.8-7.989-54.302-22.493c-14.509-14.504-22.498-33.79-22.498-54.307v-117.397l-204.8-204.8-7.499 7.499c-9.997 9.998-26.206 9.998-36.203 0l-37.898-37.899-99.294 99.294c-14.466 14.467-33.752 22.434-54.306 22.434s-39.84-7.966-54.306-22.434l-138.197-138.195c-52.043-52.043-84.298-107.485-84.298-222.902 0-105.344 50.37-257.662 52.514-264.096 2.547-7.643 8.546-13.642 16.19-16.19 6.434-2.146 158.754-52.514 264.096-52.514 115.418 0 170.859 32.254 222.901 84.299l138.197 138.197c14.466 14.464 22.432 33.75 22.432 54.304s-7.966 39.84-22.432 54.304l-99.294 99.296 37.899 37.899c4.802 4.8 7.499 11.312 7.499 18.101s-2.698 13.301-7.499 18.101l-7.499 7.499 204.8 204.8h117.397c20.515 0 39.803 7.989 54.306 22.494 14.506 14.504 22.496 33.792 22.496 54.306s-7.989 39.8-22.496 54.304zM486.4 578.197l91.795-91.797-164.392-164.392c-9.61-9.611-22.467-14.902-36.203-14.902s-26.594 5.293-36.203 14.904l-19.389 19.386c-19.963 19.965-19.963 52.445 0 72.41l164.392 164.392zM657.696 294.901c9.981-9.981 9.981-26.222 0-36.203l-138.197-138.197c-44.947-44.944-88.011-69.301-186.699-69.301-80.734 0-197.794 34.219-235.627 45.978-11.763 37.824-45.973 154.789-45.973 235.622 0 98.688 24.357 141.754 69.301 186.698l138.197 138.197c9.982 9.982 26.222 9.982 36.203 0l99.296-99.294-108.394-108.392c-39.925-39.925-39.925-104.891 0-144.818l19.389-19.386c19.282-19.282 44.997-29.901 72.408-29.901s53.126 10.619 72.406 29.901l108.394 108.392 99.296-99.296zM548.205 588.8l194.195 194.197 40.597-40.597-194.197-194.197-40.595 40.597zM965.301 775.498c-4.834-4.835-11.262-7.498-18.101-7.498h-117.397l-61.803 61.803v117.397c0 6.838 2.662 13.267 7.501 18.102 4.834 4.835 11.262 7.498 18.099 7.498s13.266-2.662 18.101-7.499l153.602-153.602c4.835-4.835 7.499-11.264 7.499-18.101s-2.662-13.264-7.501-18.101z" />
<glyph unicode="&#xe681;" glyph-name="trash2" d="M793.6 921.6h-179.2v25.6c0 42.347-34.453 76.8-76.8 76.8h-102.4c-42.347 0-76.8-34.453-76.8-76.8v-25.6h-179.2c-42.347 0-76.8-34.453-76.8-76.8v-51.2c0-33.373 21.403-61.829 51.2-72.397v-644.403c0-42.349 34.453-76.8 76.8-76.8h512c42.349 0 76.8 34.451 76.8 76.8v644.403c29.797 10.568 51.2 39.024 51.2 72.397v51.2c0 42.347-34.451 76.8-76.8 76.8zM409.6 947.2c0 14.115 11.485 25.6 25.6 25.6h102.4c14.115 0 25.6-11.485 25.6-25.6v-25.6h-153.6v25.6zM742.4 51.2h-512c-14.115 0-25.6 11.485-25.6 25.6v640h563.2v-640c0-14.115-11.485-25.6-25.6-25.6zM819.2 793.6c0-14.115-11.485-25.6-25.6-25.6h-614.4c-14.115 0-25.6 11.485-25.6 25.6v51.2c0 14.115 11.485 25.6 25.6 25.6h614.4c14.115 0 25.6-11.485 25.6-25.6v-51.2zM640 665.6c-14.139 0-25.6-11.462-25.6-25.6v-512c0-14.139 11.461-25.6 25.6-25.6s25.6 11.461 25.6 25.6v512c0 14.138-11.461 25.6-25.6 25.6zM486.4 665.6c-14.138 0-25.6-11.462-25.6-25.6v-512c0-14.139 11.462-25.6 25.6-25.6s25.6 11.461 25.6 25.6v512c0 14.138-11.462 25.6-25.6 25.6zM332.8 665.6c-14.138 0-25.6-11.462-25.6-25.6v-512c0-14.139 11.462-25.6 25.6-25.6s25.6 11.461 25.6 25.6v512c0 14.138-11.462 25.6-25.6 25.6z" />
<glyph unicode="&#xe68c;" glyph-name="heart" d="M486.4 51.2c-4.283 0-8.566 1.074-12.434 3.222-4.808 2.67-119.088 66.624-235.122 171.376-68.643 61.97-123.467 125.363-162.944 188.418-50.365 80.443-75.901 160.715-75.901 238.584 0 148.218 120.582 268.8 268.8 268.8 50.173 0 103.462-18.805 150.051-52.952 27.251-19.973 50.442-44.043 67.549-69.606 17.107 25.565 40.299 49.634 67.55 69.606 46.589 34.147 99.878 52.952 150.050 52.952 148.218 0 268.8-120.582 268.8-268.8 0-77.869-25.538-158.141-75.901-238.584-39.478-63.054-94.301-126.446-162.944-188.418-116.034-104.754-230.314-168.706-235.122-171.376-3.867-2.149-8.15-3.222-12.434-3.222zM268.8 870.4c-119.986 0-217.6-97.614-217.6-217.6 0-155.624 120.302-297.077 221.224-388.338 90.131-81.504 181.44-138.658 213.976-158.042 32.536 19.384 123.845 76.538 213.976 158.042 100.922 91.261 221.224 232.714 221.224 388.338 0 119.986-97.616 217.6-217.6 217.6-87.187 0-171.856-71.725-193.314-136.096-3.485-10.453-13.267-17.504-24.286-17.504s-20.802 7.051-24.286 17.504c-21.456 64.371-106.125 136.096-193.314 136.096z" />
<glyph unicode="&#xe68d;" glyph-name="star" d="M793.598 51.2c-4.205 0-8.422 1.034-12.258 3.126l-269.341 146.912-269.341-146.912c-8.598-4.691-19.118-4.061-27.098 1.613-7.981 5.677-12.022 15.41-10.413 25.069l49.034 294.206-195.483 195.485c-6.781 6.781-9.203 16.782-6.277 25.914s10.712 15.862 20.17 17.438l294.341 49.058 122.17 244.339c4.336 8.674 13.2 14.152 22.898 14.152s18.562-5.478 22.898-14.152l122.17-244.339 294.341-49.058c9.459-1.576 17.243-8.307 20.17-17.438s0.504-19.133-6.277-25.914l-195.483-195.485 49.034-294.206c1.61-9.659-2.434-19.392-10.413-25.069-4.419-3.144-9.621-4.739-14.84-4.739zM512 256c4.219 0 8.437-1.042 12.259-3.126l235.445-128.426-42.557 255.344c-1.36 8.155 1.302 16.464 7.15 22.309l169.626 169.626-258.131 43.022c-8.080 1.346-15.027 6.477-18.69 13.803l-105.102 210.205-105.102-210.205c-3.664-7.326-10.61-12.458-18.69-13.803l-258.131-43.022 169.624-169.626c5.846-5.845 8.509-14.155 7.15-22.309l-42.557-255.344 235.446 128.426c3.821 2.085 8.040 3.126 12.259 3.126z" />
<glyph unicode="&#xe68f;" glyph-name="star-empty" d="M281.57 597.33c-12.29 0-23.134 8.874-25.221 21.395-2.325 13.946 7.098 27.136 21.043 29.461l89.541 14.923 19.77 39.539c6.323 12.646 21.701 17.773 34.346 11.45 12.646-6.323 17.771-21.701 11.45-34.346l-25.6-51.2c-3.664-7.326-10.61-12.458-18.69-13.803l-102.4-17.067c-1.424-0.237-2.842-0.352-4.238-0.352zM128 512c-6.552 0-13.102 2.499-18.101 7.499l-51.2 51.2c-6.781 6.781-9.203 16.782-6.277 25.914s10.71 15.862 20.17 17.438l102.4 17.067c13.957 2.326 27.136-7.099 29.461-21.043 2.325-13.946-7.098-27.136-21.043-29.461l-53.331-8.89 16.024-16.026c9.998-9.997 9.998-26.206 0-36.203-5-4.997-11.55-7.496-18.102-7.496zM759.434 255.995c-12.29 0-23.134 8.875-25.221 21.397l-17.066 102.4c-1.36 8.155 1.302 16.464 7.15 22.309l51.2 51.2c9.997 9.997 26.206 9.997 36.203 0 9.998-9.997 9.998-26.206 0-36.203l-41.885-41.885 14.899-89.406c2.325-13.946-7.098-27.136-21.043-29.459-1.422-0.237-2.838-0.352-4.238-0.352zM793.598 51.2c-4.205 0-8.422 1.034-12.256 3.126l-153.606 83.784c-12.413 6.768-16.986 22.32-10.216 34.731 6.766 12.414 22.32 16.99 34.731 10.216l107.453-58.61-8.424 50.542c-2.325 13.947 7.098 27.136 21.042 29.461 13.955 2.322 27.136-7.096 29.461-21.042l17.067-102.4c1.61-9.661-2.434-19.394-10.413-25.070-4.418-3.144-9.619-4.739-14.838-4.739zM273.098 307.195c-1.398 0-2.814 0.115-4.238 0.354-13.946 2.325-23.366 15.514-21.043 29.461l6.368 38.205-41.885 41.885c-9.998 9.997-9.998 26.206 0 36.203s26.206 9.997 36.203 0l51.2-51.2c5.846-5.845 8.509-14.155 7.15-22.31l-8.533-51.2c-2.088-12.522-12.934-21.397-25.222-21.397zM230.402 51.2c-5.221 0-10.421 1.595-14.842 4.739-7.981 5.677-12.022 15.41-10.413 25.069l25.6 153.598c2.325 13.947 15.514 23.368 29.461 21.043 13.946-2.323 23.366-15.514 21.043-29.459l-16.957-101.742 56.246 30.68c12.41 6.771 27.963 2.197 34.733-10.214 6.77-12.413 2.197-27.963-10.216-34.733l-102.4-55.854c-3.834-2.093-8.051-3.126-12.256-3.126zM435.222 162.904c-9.067 0-17.85 4.827-22.498 13.347-6.77 12.411-2.197 27.963 10.216 34.731l76.8 41.891c7.64 4.168 16.875 4.168 24.517 0l25.595-13.962c12.413-6.768 16.986-22.32 10.216-34.731-6.766-12.414-22.32-16.99-34.731-10.216l-13.338 7.274-64.541-35.203c-3.893-2.123-8.094-3.131-12.237-3.131zM896 512c-6.552 0-13.102 2.499-18.101 7.499-9.998 9.997-9.998 26.206 0 36.203l16.024 16.026-104.53 17.422c-13.947 2.325-23.368 15.514-21.043 29.461s15.533 23.368 29.459 21.043l153.6-25.6c9.459-1.576 17.243-8.307 20.17-17.438s0.504-19.133-6.277-25.914l-51.2-51.2c-5-5.003-11.55-7.502-18.102-7.502zM691.234 605.862c-1.398 0-2.816 0.115-4.24 0.352l-51.202 8.533c-8.078 1.346-15.026 6.477-18.688 13.802l-51.2 102.395c-6.323 12.646-1.198 28.024 11.448 34.346 12.643 6.323 28.024 1.197 34.346-11.448l45.37-90.736 38.344-6.39c13.946-2.325 23.366-15.514 21.042-29.461-2.086-12.518-12.933-21.392-25.219-21.392zM460.779 767.995c-3.846 0-7.754 0.87-11.429 2.707-12.646 6.323-17.771 21.701-11.45 34.346l51.2 102.4c4.338 8.674 13.203 14.152 22.899 14.152 0 0 0 0 0 0 9.698 0 18.562-5.478 22.898-14.152l25.598-51.2c6.323-12.646 1.197-28.024-11.448-34.346-12.646-6.325-28.024-1.198-34.346 11.45l-2.702 5.403-28.301-56.603c-4.486-8.971-13.53-14.157-22.92-14.157z" />
<glyph unicode="&#xe691;" glyph-name="flag2" d="M76.8 0c-14.138 0-25.6 11.461-25.6 25.6v768c0 14.138 11.462 25.6 25.6 25.6s25.6-11.462 25.6-25.6v-768c0-14.139-11.462-25.6-25.6-25.6zM793.6 307.2c-113.005 0-171.389 58.386-222.901 109.899-50.925 50.923-94.902 94.901-186.699 94.901s-135.774-43.978-186.699-94.901c-9.997-9.998-26.206-9.998-36.203 0-9.998 9.997-9.998 26.206 0 36.203 51.514 51.512 109.899 109.898 222.902 109.898s171.389-58.386 222.901-109.899c50.925-50.923 94.904-94.901 186.699-94.901 87.264 0 131.315 39.744 179.2 87.416v288.139c-42.934-37.016-96.406-68.355-179.2-68.355-113.005 0-171.389 58.386-222.901 109.899-50.925 50.922-94.902 94.901-186.699 94.901s-135.774-43.979-186.699-94.901c-9.997-9.998-26.206-9.998-36.203 0s-9.998 26.206 0 36.203c51.514 51.512 109.899 109.898 222.902 109.898s171.389-58.386 222.901-109.899c50.925-50.922 94.904-94.901 186.699-94.901s135.774 43.979 186.699 94.901c7.32 7.322 18.33 9.514 27.899 5.55 9.565-3.962 15.802-13.296 15.802-23.651v-358.4c0-6.79-2.698-13.299-7.499-18.101-51.512-51.514-109.896-109.899-222.901-109.899zM76.8 870.4c-42.347 0-76.8 34.453-76.8 76.8s34.453 76.8 76.8 76.8 76.8-34.453 76.8-76.8-34.453-76.8-76.8-76.8zM76.8 972.8c-14.115 0-25.6-11.485-25.6-25.6s11.485-25.6 25.6-25.6 25.6 11.485 25.6 25.6-11.485 25.6-25.6 25.6z" />
<glyph unicode="&#xe695;" glyph-name="at-sign" d="M874.038 874.038c-96.704 96.704-225.278 149.962-362.038 149.962s-265.334-53.258-362.038-149.962c-96.704-96.704-149.962-225.278-149.962-362.038s53.258-265.334 149.962-362.038c96.704-96.704 225.278-149.962 362.038-149.962 80.33 0 157.243 18.085 228.606 53.752 68.026 33.998 128.746 83.774 175.598 143.95 8.688 11.157 6.685 27.24-4.47 35.926-11.157 8.686-27.238 6.686-35.926-4.47-88.058-113.096-220.661-177.958-363.808-177.958-254.086 0-460.8 206.714-460.8 460.8s206.714 460.8 460.8 460.8 460.8-206.714 460.8-460.8c0-90.437-52.635-153.6-128-153.6-70.579 0-128 57.421-128 128v204.8c0 14.138-11.461 25.6-25.6 25.6s-25.6-11.462-25.6-25.6v-43.898c-37.557 42.586-92.491 69.498-153.6 69.498-112.928 0-204.8-91.872-204.8-204.8 0-112.926 91.872-204.8 204.8-204.8 73.232 0 137.597 38.643 173.808 96.603 29.915-57.354 89.954-96.603 158.992-96.603 49.542 0 94.885 20.136 127.67 56.698 33.71 37.592 51.53 88.803 51.53 148.102 0 136.76-53.258 265.334-149.962 362.038zM512 358.4c-84.696 0-153.6 68.904-153.6 153.6s68.904 153.6 153.6 153.6 153.6-68.904 153.6-153.6-68.904-153.6-153.6-153.6z" />
<glyph unicode="&#xe696;" glyph-name="envelope" d="M896 716.8h-819.2c-42.347 0-76.8-34.453-76.8-76.8v-460.8c0-42.349 34.453-76.8 76.8-76.8h819.2c42.349 0 76.8 34.451 76.8 76.8v460.8c0 42.347-34.451 76.8-76.8 76.8zM896 665.6c1.514 0 2.99-0.158 4.434-0.411l-385.632-257.090c-14.862-9.907-41.938-9.907-56.802 0l-385.634 257.090c1.443 0.253 2.92 0.411 4.434 0.411h819.2zM896 153.6h-819.2c-14.115 0-25.6 11.485-25.6 25.6v438.566l378.4-252.267c15.925-10.618 36.363-15.925 56.8-15.925s40.877 5.307 56.802 15.925l378.398 252.267v-438.566c0-14.115-11.485-25.6-25.6-25.6z" />
<glyph unicode="&#xe697;" glyph-name="envelope-open" d="M916.861 739.742l-373.424 228.203c-15.584 9.525-35.842 14.77-57.037 14.77s-41.453-5.245-57.037-14.77l-373.424-228.203c-31.891-19.488-55.939-62.37-55.939-99.742v-460.8c0-42.349 34.453-76.8 76.8-76.8h819.2c42.349 0 76.8 34.451 76.8 76.8v460.8c0 37.373-24.048 80.253-55.939 99.742zM82.637 696.054l373.424 228.203c7.547 4.611 18.605 7.258 30.339 7.258s22.792-2.645 30.339-7.258l373.424-228.202c7.947-4.858 15.547-13.605 21.286-23.522l-396.648-264.435c-14.862-9.907-41.938-9.907-56.802 0l-396.648 264.434c5.739 9.917 13.338 18.666 21.285 23.522zM896 153.6h-819.2c-14.115 0-25.6 11.485-25.6 25.6v438.566l378.4-252.266c15.925-10.618 36.363-15.926 56.8-15.926s40.877 5.309 56.802 15.926l378.398 252.266v-438.566c0-14.115-11.485-25.6-25.6-25.6z" />
<glyph unicode="&#xe699;" glyph-name="paper-plane" d="M1015.456 966.291c-7.371 6.587-17.877 8.341-26.99 4.502l-972.8-409.6c-9.822-4.136-16.056-13.925-15.646-24.576 0.41-10.65 7.374-19.933 17.486-23.302l289.694-96.566v-288.749c0-10.835 6.822-20.499 17.034-24.125 2.805-0.995 5.698-1.477 8.562-1.477 7.562 0 14.917 3.358 19.874 9.458l141.472 174.12 230.27-227.392c4.851-4.79 11.339-7.384 17.989-7.384 2.133 0 4.283 0.267 6.402 0.814 8.72 2.253 15.616 8.922 18.157 17.563l256 870.4c2.792 9.483-0.13 19.726-7.502 26.314zM825.862 846.776l-497.882-382.986-229.79 76.597 727.672 306.389zM358.4 422.595l482.062 370.816-368.346-453.347c-0.011-0.013-0.022-0.027-0.034-0.040l-113.683-139.92v222.491zM729.922 125.101l-203.342 200.8 411.28 506.192-207.938-706.992z" />
<glyph unicode="&#xe6a2;" glyph-name="drawers" d="M793.6 870.4h-563.2c-42.347 0-76.8-34.453-76.8-76.8v-614.4c0-14.139 11.462-25.6 25.6-25.6s25.6 11.461 25.6 25.6v25.6h614.4v-25.6c0-14.139 11.461-25.6 25.6-25.6s25.6 11.461 25.6 25.6v614.4c0 42.347-34.453 76.8-76.8 76.8zM230.4 819.2h563.2c14.115 0 25.6-11.485 25.6-25.6v-128h-614.4v128c0 14.115 11.485 25.6 25.6 25.6zM819.2 614.4v-153.6h-614.4v153.6h614.4zM204.8 256v153.6h614.4v-153.6h-614.4zM537.6 716.8h-51.2c-14.138 0-25.6 11.462-25.6 25.6s11.462 25.6 25.6 25.6h51.2c14.139 0 25.6-11.462 25.6-25.6s-11.461-25.6-25.6-25.6zM537.6 512h-51.2c-14.138 0-25.6 11.461-25.6 25.6s11.462 25.6 25.6 25.6h51.2c14.139 0 25.6-11.461 25.6-25.6s-11.461-25.6-25.6-25.6zM537.6 307.2h-51.2c-14.138 0-25.6 11.461-25.6 25.6s11.462 25.6 25.6 25.6h51.2c14.139 0 25.6-11.461 25.6-25.6s-11.461-25.6-25.6-25.6z" />
<glyph unicode="&#xe6a3;" glyph-name="drawers2" d="M947.2 870.4h-870.4c-42.347 0-76.8-34.453-76.8-76.8v-614.4c0-14.139 11.462-25.6 25.6-25.6s25.6 11.461 25.6 25.6v25.6h921.6v-25.6c0-14.139 11.461-25.6 25.6-25.6s25.6 11.461 25.6 25.6v614.4c0 42.347-34.451 76.8-76.8 76.8zM76.8 819.2h870.4c14.115 0 25.6-11.485 25.6-25.6v-128h-921.6v128c0 14.115 11.485 25.6 25.6 25.6zM972.8 614.4v-153.6h-921.6v153.6h921.6zM51.2 256v153.6h921.6v-153.6h-921.6zM281.6 716.8h-51.2c-14.138 0-25.6 11.462-25.6 25.6s11.462 25.6 25.6 25.6h51.2c14.138 0 25.6-11.462 25.6-25.6s-11.462-25.6-25.6-25.6zM281.6 512h-51.2c-14.138 0-25.6 11.461-25.6 25.6s11.462 25.6 25.6 25.6h51.2c14.138 0 25.6-11.461 25.6-25.6s-11.462-25.6-25.6-25.6zM281.6 307.2h-51.2c-14.138 0-25.6 11.461-25.6 25.6s11.462 25.6 25.6 25.6h51.2c14.138 0 25.6-11.461 25.6-25.6s-11.462-25.6-25.6-25.6zM793.6 716.8h-51.2c-14.139 0-25.6 11.462-25.6 25.6s11.461 25.6 25.6 25.6h51.2c14.139 0 25.6-11.462 25.6-25.6s-11.461-25.6-25.6-25.6zM793.6 512h-51.2c-14.139 0-25.6 11.461-25.6 25.6s11.461 25.6 25.6 25.6h51.2c14.139 0 25.6-11.461 25.6-25.6s-11.461-25.6-25.6-25.6zM793.6 307.2h-51.2c-14.139 0-25.6 11.461-25.6 25.6s11.461 25.6 25.6 25.6h51.2c14.139 0 25.6-11.461 25.6-25.6s-11.461-25.6-25.6-25.6z" />
<glyph unicode="&#xe6a4;" glyph-name="drawers3" d="M793.6 512h-614.4c-42.347 0-76.8 34.451-76.8 76.8v204.8c0 42.347 34.453 76.8 76.8 76.8h614.4c42.349 0 76.8-34.453 76.8-76.8v-204.8c0-42.349-34.451-76.8-76.8-76.8zM179.2 819.2c-14.115 0-25.6-11.485-25.6-25.6v-204.8c0-14.115 11.485-25.6 25.6-25.6h614.4c14.115 0 25.6 11.485 25.6 25.6v204.8c0 14.115-11.485 25.6-25.6 25.6h-614.4zM486.4 614.4c-42.347 0-76.8 34.453-76.8 76.8s34.453 76.8 76.8 76.8c42.349 0 76.8-34.453 76.8-76.8s-34.451-76.8-76.8-76.8zM486.4 716.8c-14.115 0-25.6-11.485-25.6-25.6s11.485-25.6 25.6-25.6 25.6 11.485 25.6 25.6-11.485 25.6-25.6 25.6zM793.6 102.4h-614.4c-42.347 0-76.8 34.451-76.8 76.8v204.8c0 42.349 34.453 76.8 76.8 76.8h614.4c42.349 0 76.8-34.451 76.8-76.8v-204.8c0-42.349-34.451-76.8-76.8-76.8zM179.2 409.6c-14.115 0-25.6-11.485-25.6-25.6v-204.8c0-14.115 11.485-25.6 25.6-25.6h614.4c14.115 0 25.6 11.485 25.6 25.6v204.8c0 14.115-11.485 25.6-25.6 25.6h-614.4zM486.4 204.8c-42.347 0-76.8 34.451-76.8 76.8s34.453 76.8 76.8 76.8c42.349 0 76.8-34.451 76.8-76.8s-34.451-76.8-76.8-76.8zM486.4 307.2c-14.115 0-25.6-11.485-25.6-25.6s11.485-25.6 25.6-25.6 25.6 11.485 25.6 25.6-11.485 25.6-25.6 25.6zM896 0h-819.2c-42.347 0-76.8 34.451-76.8 76.8v819.2c0 42.347 34.453 76.8 76.8 76.8h819.2c42.349 0 76.8-34.453 76.8-76.8v-819.2c0-42.349-34.451-76.8-76.8-76.8zM76.8 921.6c-14.115 0-25.6-11.485-25.6-25.6v-819.2c0-14.115 11.485-25.6 25.6-25.6h819.2c14.115 0 25.6 11.485 25.6 25.6v819.2c0 14.115-11.485 25.6-25.6 25.6h-819.2z" />
<glyph unicode="&#xe6a5;" glyph-name="eye" d="M1017.429 503.526c-2.429 2.698-60.515 66.826-151.349 131.706-53.587 38.277-107.499 68.826-160.234 90.8-66.837 27.848-132.056 41.968-193.846 41.968s-127.010-14.12-193.846-41.97c-52.736-21.973-106.646-52.523-160.234-90.8-90.832-64.878-148.92-129.006-151.349-131.704-8.763-9.736-8.763-24.515 0-34.251 2.429-2.699 60.517-66.827 151.349-131.707 53.587-38.277 107.498-68.827 160.234-90.8 66.837-27.848 132.056-41.968 193.846-41.968s127.010 14.12 193.846 41.968c52.734 21.973 106.645 52.523 160.234 90.8 90.834 64.88 148.92 129.008 151.349 131.706 8.762 9.736 8.762 24.517 0 34.253zM643.789 694.357c46.458-39.074 73.011-95.923 73.011-156.757 0-112.926-91.874-204.8-204.8-204.8-112.928 0-204.8 91.874-204.8 204.8 0 60.835 26.554 117.685 73.014 156.757 42.107 13.744 86.602 22.443 131.786 22.443 45.186 0 89.682-8.699 131.789-22.443zM835.418 378.587c-78.488-55.925-198.309-122.587-323.418-122.587s-244.93 66.662-323.416 122.587c-59.24 42.21-104.574 84.89-127.458 107.813 22.888 22.928 68.222 65.606 127.458 107.813 27.13 19.331 59.2 39.942 94.72 58.643-17.766-35.224-27.304-74.52-27.304-115.256 0-141.16 114.842-256 256-256 141.16 0 256 114.84 256 256 0 40.734-9.538 80.032-27.301 115.256 35.517-18.701 67.589-39.312 94.718-58.643 59.238-42.21 104.573-84.89 127.456-107.813-22.888-22.928-68.222-65.606-127.456-107.813z" />
<glyph unicode="&#xe6a6;" glyph-name="eye-crossed" d="M1017.429 503.526c-2.429 2.698-60.515 66.826-151.349 131.706-30.728 21.949-61.562 41.341-92.218 58.048l88.301 81.509c10.389 9.59 11.037 25.786 1.446 36.174-9.59 10.39-25.786 11.035-36.174 1.446l-102.555-94.666c-6.36 2.883-12.704 5.65-19.034 8.286-66.837 27.85-132.056 41.97-193.846 41.97s-127.010-14.12-193.846-41.97c-52.736-21.973-106.646-52.523-160.234-90.8-90.832-64.878-148.92-129.006-151.349-131.704-8.763-9.736-8.763-24.515 0-34.251 2.429-2.699 60.517-66.827 151.349-131.707 30.728-21.949 61.56-41.342 92.218-58.048l-88.301-81.509c-10.389-9.59-11.037-25.786-1.446-36.174 5.046-5.467 11.922-8.235 18.818-8.235 6.208 0 12.435 2.245 17.358 6.789l102.555 94.667c6.36-2.883 12.706-5.65 19.034-8.288 66.835-27.85 132.054-41.97 193.845-41.97s127.010 14.12 193.846 41.968c52.734 21.973 106.645 52.523 160.234 90.8 90.834 64.88 148.92 129.008 151.349 131.706 8.762 9.736 8.762 24.517 0 34.253zM716.8 537.6c0-112.926-91.872-204.8-204.8-204.8-36.384 0-70.573 9.549-100.218 26.253l286.294 264.272c12.203-26.486 18.723-55.614 18.723-85.725zM643.787 694.357c9.774-8.221 18.662-17.234 26.613-26.901l-300.397-277.29c-38.691 37.277-62.803 89.59-62.803 147.434 0 60.835 26.552 117.683 73.013 156.757 42.109 13.744 86.602 22.443 131.787 22.443s89.68-8.699 131.787-22.443zM188.584 378.587c-59.24 42.21-104.574 84.89-127.458 107.813 22.888 22.928 68.222 65.606 127.458 107.813 27.13 19.331 59.2 39.942 94.72 58.643-17.766-35.222-27.304-74.52-27.304-115.256 0-71.224 29.248-135.738 76.35-182.19l-42.248-38.997c-38.229 19.614-72.669 41.619-101.518 62.174zM835.418 378.587c-78.488-55.925-198.309-122.587-323.418-122.587-59.717 0-118.224 15.194-171.61 37.152l32.275 29.792c40.125-26.134 87.984-41.344 139.334-41.344 141.158 0 256 114.84 256 256 0 40.734-9.538 80.032-27.301 115.256 35.518-18.701 67.589-39.312 94.718-58.643 59.238-42.21 104.573-84.89 127.456-107.813-22.888-22.928-68.222-65.606-127.456-107.813z" />
<glyph unicode="&#xe6b1;" glyph-name="printer" d="M947.2 819.2h-76.8v128c0 42.347-34.453 76.8-76.8 76.8h-563.2c-42.347 0-76.8-34.453-76.8-76.8v-128h-76.8c-42.347 0-76.8-34.453-76.8-76.8v-460.8c0-42.349 34.453-76.8 76.8-76.8h76.8v-128c0-42.347 34.453-76.8 76.8-76.8h563.2c42.347 0 76.8 34.453 76.8 76.8v128h76.8c42.349 0 76.8 34.451 76.8 76.8v460.8c0 42.347-34.451 76.8-76.8 76.8zM204.8 947.2c0 14.115 11.485 25.6 25.6 25.6h563.2c14.115 0 25.6-11.485 25.6-25.6v-128h-614.4v128zM793.6 51.2h-563.2c-14.115 0-25.6 11.485-25.6 25.6v332.8h614.4v-332.8c0-14.115-11.485-25.6-25.6-25.6zM972.8 281.6c0-14.115-11.485-25.6-25.6-25.6h-76.8v153.6h25.6c14.139 0 25.6 11.461 25.6 25.6s-11.461 25.6-25.6 25.6h-768c-14.138 0-25.6-11.461-25.6-25.6s11.462-25.6 25.6-25.6h25.6v-153.6h-76.8c-14.115 0-25.6 11.485-25.6 25.6v460.8c0 14.115 11.485 25.6 25.6 25.6h870.4c14.115 0 25.6-11.485 25.6-25.6v-460.8zM742.4 307.2h-460.8c-14.138 0-25.6 11.461-25.6 25.6s11.462 25.6 25.6 25.6h460.8c14.139 0 25.6-11.461 25.6-25.6s-11.461-25.6-25.6-25.6zM742.4 204.8h-460.8c-14.138 0-25.6 11.461-25.6 25.6s11.462 25.6 25.6 25.6h460.8c14.139 0 25.6-11.461 25.6-25.6s-11.461-25.6-25.6-25.6zM742.4 102.4h-460.8c-14.138 0-25.6 11.461-25.6 25.6s11.462 25.6 25.6 25.6h460.8c14.139 0 25.6-11.461 25.6-25.6s-11.461-25.6-25.6-25.6zM844.8 563.2c-42.349 0-76.8 34.453-76.8 76.8s34.451 76.8 76.8 76.8 76.8-34.453 76.8-76.8-34.451-76.8-76.8-76.8zM844.8 665.6c-14.115 0-25.6-11.485-25.6-25.6s11.485-25.6 25.6-25.6 25.6 11.485 25.6 25.6-11.485 25.6-25.6 25.6z" />
<glyph unicode="&#xe6d0;" glyph-name="clipboard-user" d="M844.8 0h-716.8c-42.347 0-76.8 34.451-76.8 76.8v716.8c0 42.347 34.453 76.8 76.8 76.8h51.2c14.138 0 25.6-11.462 25.6-25.6s-11.462-25.6-25.6-25.6h-51.2c-14.115 0-25.6-11.485-25.6-25.6v-716.8c0-14.115 11.485-25.6 25.6-25.6h716.8c14.115 0 25.6 11.485 25.6 25.6v716.8c0 14.115-11.485 25.6-25.6 25.6h-51.2c-14.139 0-25.6 11.462-25.6 25.6s11.461 25.6 25.6 25.6h51.2c42.349 0 76.8-34.453 76.8-76.8v-716.8c0-42.349-34.451-76.8-76.8-76.8zM691.232 768c-0.008 0-0.021-0.002-0.032 0h-409.6c-14.138 0-25.6 11.462-25.6 25.6 0 51.474 23.208 91.426 65.352 112.498 14.091 7.045 27.994 10.891 39.134 12.99 10.899 59.6 63.213 104.912 125.914 104.912s115.016-45.312 125.914-104.912c11.141-2.099 25.043-5.944 39.134-12.99 41.76-20.88 64.928-60.298 65.346-111.096 0.026-0.464 0.037-0.933 0.037-1.402 0.002-14.138-11.461-25.6-25.598-25.6zM310.283 819.2h352.234c-4.912 18.243-15.723 31.581-32.666 40.438-19.898 10.402-40.982 10.76-41.194 10.763-14.138-0.002-25.458 11.461-25.458 25.598 0 42.347-34.451 76.8-76.8 76.8-42.347 0-76.8-34.453-76.8-76.8 0-14.138-11.462-25.6-25.6-25.6-0.069-0.002-21.154-0.36-41.051-10.762-16.944-8.858-27.754-22.195-32.666-40.438zM486.4 870.4c-6.736 0-13.344 2.736-18.096 7.504-4.768 4.752-7.504 11.36-7.504 18.096s2.736 13.344 7.504 18.096c4.752 4.768 11.36 7.504 18.096 7.504s13.344-2.736 18.096-7.504c4.768-4.768 7.504-11.36 7.504-18.096s-2.736-13.328-7.504-18.096c-4.752-4.768-11.36-7.504-18.096-7.504zM640 153.6h-307.2c-21.75 0-40.766 9.075-52.171 24.899s-14.002 36.733-7.123 57.366c1.104 3.315 11.714 33.253 43.464 63.078 28.872 27.125 81.706 59.456 169.43 59.456s140.558-32.331 169.432-59.454c31.75-29.826 42.36-59.763 43.464-63.078 6.878-20.634 4.282-41.544-7.123-57.366-11.406-15.826-30.422-24.901-52.173-24.901zM486.4 307.2c-133.603 0-164.032-86.648-164.323-87.523-1.587-4.762-1.554-8.963 0.088-11.238 1.64-2.278 5.616-3.638 10.635-3.638h307.2c5.019 0 8.995 1.36 10.635 3.637 1.627 2.254 1.674 6.398 0.131 11.102-1.638 4.57-33.35 87.661-164.366 87.661zM486.4 409.6c-70.579 0-128 57.421-128 128s57.421 128 128 128 128-57.421 128-128-57.421-128-128-128zM486.4 614.4c-42.347 0-76.8-34.453-76.8-76.8s34.453-76.8 76.8-76.8c42.347 0 76.8 34.453 76.8 76.8s-34.453 76.8-76.8 76.8z" />
<glyph unicode="&#xe6d1;" glyph-name="register" d="M742.4 0h-665.6c-42.347 0-76.8 34.451-76.8 76.8v819.2c0 42.347 34.453 76.8 76.8 76.8h665.6c42.349 0 76.8-34.453 76.8-76.8v-102.4c0-14.138-11.461-25.6-25.6-25.6s-25.6 11.462-25.6 25.6v102.4c0 14.115-11.485 25.6-25.6 25.6h-665.6c-14.115 0-25.6-11.485-25.6-25.6v-819.2c0-14.115 11.485-25.6 25.6-25.6h665.6c14.115 0 25.6 11.485 25.6 25.6v204.8c0 14.139 11.461 25.6 25.6 25.6s25.6-11.461 25.6-25.6v-204.8c0-42.349-34.451-76.8-76.8-76.8zM537.6 768h-358.4c-14.138 0-25.6 11.462-25.6 25.6s11.462 25.6 25.6 25.6h358.4c14.139 0 25.6-11.462 25.6-25.6s-11.461-25.6-25.6-25.6zM640 665.6h-460.8c-14.138 0-25.6 11.462-25.6 25.6s11.462 25.6 25.6 25.6h460.8c14.139 0 25.6-11.462 25.6-25.6s-11.461-25.6-25.6-25.6zM588.8 563.2h-409.6c-14.138 0-25.6 11.462-25.6 25.6s11.462 25.6 25.6 25.6h409.6c14.139 0 25.6-11.462 25.6-25.6s-11.461-25.6-25.6-25.6zM435.2 460.8h-256c-14.138 0-25.6 11.461-25.6 25.6s11.462 25.6 25.6 25.6h256c14.138 0 25.6-11.461 25.6-25.6s-11.462-25.6-25.6-25.6zM435.2 153.6c-6.87 0-13.554 2.768-18.438 7.84-6.331 6.573-8.683 16.019-6.176 24.792l51.2 179.2c1.195 4.182 3.437 7.992 6.512 11.069l384 384c9.997 9.997 26.206 9.997 36.203 0l128-128c9.933-9.933 10.006-26.011 0.166-36.035l-384-391.2c-3.331-3.395-7.544-5.794-12.165-6.928l-179.2-44c-2.021-0.496-4.069-0.738-6.102-0.738zM509.194 344.989l-37.261-130.41 129.296 31.747 361.136 367.906-91.965 91.965-361.206-361.208zM332.8 153.6h-153.6c-14.138 0-25.6 11.461-25.6 25.6s11.462 25.6 25.6 25.6h153.6c14.138 0 25.6-11.461 25.6-25.6s-11.462-25.6-25.6-25.6z" />
<glyph unicode="&#xe6d3;" glyph-name="exit" d="M588.8 614.4c14.139 0 25.6 11.462 25.6 25.6v204.8c0 42.347-34.451 76.8-76.8 76.8h-460.8c-42.347 0-76.8-34.453-76.8-76.8v-614.4c0-38.178 27.488-79.862 62.576-94.899l264.278-113.262c9.134-3.915 18.373-5.859 27.24-5.859 10.926 0.002 21.288 2.955 30.173 8.814 16.099 10.616 25.333 29.426 25.333 51.606v76.8h128c42.349 0 76.8 34.451 76.8 76.8v204.8c0 14.139-11.461 25.6-25.6 25.6s-25.6-11.461-25.6-25.6v-204.8c0-14.115-11.485-25.6-25.6-25.6h-128v486.4c0 38.176-27.488 79.861-62.576 94.899l-196.702 84.301h387.278c14.115 0 25.6-11.485 25.6-25.6v-204.8c0-14.138 11.461-25.6 25.6-25.6zM326.854 739.038c16.51-7.075 31.546-29.877 31.546-47.838v-614.4c0-5.344-1.421-8.272-2.317-8.862-0.898-0.589-4.15-0.742-9.061 1.362l-264.278 113.262c-16.509 7.074-31.544 29.875-31.544 47.838v614.4c0 4.037 0.939 7.859 2.611 11.258l273.043-117.019zM939.701 555.701l-153.6 153.6c-9.997 9.998-26.206 9.998-36.203 0-9.998-9.997-9.998-26.206 0-36.203l109.899-109.898h-322.197c-14.139 0-25.6-11.462-25.6-25.6s11.461-25.6 25.6-25.6h322.197l-109.899-109.899c-9.998-9.997-9.998-26.206 0-36.203 5-4.998 11.55-7.498 18.102-7.498s13.102 2.499 18.101 7.499l153.6 153.6c9.998 9.997 9.998 26.205 0 36.202z" />
<glyph unicode="&#xe6d4;" glyph-name="papers" d="M537.6 563.2h-153.6c-14.138 0-25.6 11.462-25.6 25.6v204.8c0 14.138 11.462 25.6 25.6 25.6h153.6c14.139 0 25.6-11.462 25.6-25.6v-204.8c0-14.138-11.461-25.6-25.6-25.6zM409.6 614.4h102.4v153.6h-102.4v-153.6zM281.6 768h-102.4c-14.138 0-25.6 11.462-25.6 25.6s11.462 25.6 25.6 25.6h102.4c14.138 0 25.6-11.462 25.6-25.6s-11.462-25.6-25.6-25.6zM281.6 665.6h-102.4c-14.138 0-25.6 11.462-25.6 25.6s11.462 25.6 25.6 25.6h102.4c14.138 0 25.6-11.462 25.6-25.6s-11.462-25.6-25.6-25.6zM281.6 563.2h-102.4c-14.138 0-25.6 11.462-25.6 25.6s11.462 25.6 25.6 25.6h102.4c14.138 0 25.6-11.462 25.6-25.6s-11.462-25.6-25.6-25.6zM537.6 460.8h-358.4c-14.138 0-25.6 11.461-25.6 25.6s11.462 25.6 25.6 25.6h358.4c14.139 0 25.6-11.461 25.6-25.6s-11.461-25.6-25.6-25.6zM537.6 358.4h-358.4c-14.138 0-25.6 11.461-25.6 25.6s11.462 25.6 25.6 25.6h358.4c14.139 0 25.6-11.461 25.6-25.6s-11.461-25.6-25.6-25.6zM844.8 768h-25.6v25.6c0 42.347-34.451 76.8-76.8 76.8h-25.6v25.6c0 42.347-34.451 76.8-76.8 76.8h-563.2c-42.347 0-76.8-34.453-76.8-76.8v-614.4c0-42.349 34.453-76.8 76.8-76.8h25.6v-25.6c0-42.349 34.453-76.8 76.8-76.8h25.6v-25.6c0-42.349 34.453-76.8 76.8-76.8h563.2c42.349 0 76.8 34.451 76.8 76.8v614.4c0 42.347-34.451 76.8-76.8 76.8zM51.2 281.6v614.4c0 14.115 11.485 25.6 25.6 25.6h563.2c14.115 0 25.6-11.485 25.6-25.6v-614.4c0-14.115-11.485-25.6-25.6-25.6h-563.2c-14.115 0-25.6 11.485-25.6 25.6zM153.6 179.2v25.6h486.4c42.349 0 76.8 34.451 76.8 76.8v537.6h25.6c14.115 0 25.6-11.485 25.6-25.6v-614.4c0-14.115-11.485-25.6-25.6-25.6h-563.2c-14.115 0-25.6 11.485-25.6 25.6zM870.4 76.8c0-14.115-11.485-25.6-25.6-25.6h-563.2c-14.115 0-25.6 11.485-25.6 25.6v25.6h486.4c42.349 0 76.8 34.451 76.8 76.8v537.6h25.6c14.115 0 25.6-11.485 25.6-25.6v-614.4z" />
<glyph unicode="&#xe6d5;" glyph-name="news" d="M742.4 307.2h-307.2c-14.138 0-25.6 11.461-25.6 25.6v204.8c0 14.139 11.462 25.6 25.6 25.6h307.2c14.139 0 25.6-11.461 25.6-25.6v-204.8c0-14.139-11.461-25.6-25.6-25.6zM460.8 358.4h256v153.6h-256v-153.6zM332.8 512h-153.6c-14.138 0-25.6 11.461-25.6 25.6s11.462 25.6 25.6 25.6h153.6c14.138 0 25.6-11.461 25.6-25.6s-11.462-25.6-25.6-25.6zM332.8 409.6h-153.6c-14.138 0-25.6 11.461-25.6 25.6s11.462 25.6 25.6 25.6h153.6c14.138 0 25.6-11.461 25.6-25.6s-11.462-25.6-25.6-25.6zM332.8 307.2h-153.6c-14.138 0-25.6 11.461-25.6 25.6s11.462 25.6 25.6 25.6h153.6c14.138 0 25.6-11.461 25.6-25.6s-11.462-25.6-25.6-25.6zM998.4 716.8c-14.139 0-25.6-11.462-25.6-25.6v-460.8c0-14.115-11.485-25.6-25.6-25.6h-870.4c-14.115 0-25.6 11.485-25.6 25.6v512c0 14.115 11.485 25.6 25.6 25.6h768c14.115 0 25.6-11.485 25.6-25.6v-460.8c0-14.139 11.461-25.6 25.6-25.6s25.6 11.461 25.6 25.6v460.8c0 42.347-34.451 76.8-76.8 76.8h-768c-42.347 0-76.8-34.453-76.8-76.8v-512c0-42.349 34.453-76.8 76.8-76.8h870.4c42.349 0 76.8 34.451 76.8 76.8v460.8c0 14.138-11.461 25.6-25.6 25.6zM742.4 614.4h-563.2c-14.138 0-25.6 11.461-25.6 25.6s11.462 25.6 25.6 25.6h563.2c14.139 0 25.6-11.461 25.6-25.6s-11.461-25.6-25.6-25.6z" />
<glyph unicode="&#xe6e1;" glyph-name="podium" d="M947.2 614.4h-281.6v230.4c0 14.138-11.461 25.6-25.6 25.6h-307.2c-14.138 0-25.6-11.462-25.6-25.6v-128h-281.6c-14.138 0-25.6-11.462-25.6-25.6v-512c0-14.139 11.462-25.6 25.6-25.6h921.6c14.139 0 25.6 11.461 25.6 25.6v409.6c0 14.139-11.461 25.6-25.6 25.6zM358.4 819.2h256v-614.4h-256v614.4zM51.2 665.6h256v-460.8h-256v460.8zM921.6 204.8h-256v358.4h256v-358.4zM486.4 512c-14.138 0-25.6 11.461-25.6 25.6v204.8c0 14.138 11.462 25.6 25.6 25.6s25.6-11.462 25.6-25.6v-204.8c0-14.139-11.462-25.6-25.6-25.6zM230.4 358.4h-102.4c-14.138 0-25.6 11.461-25.6 25.6v102.4c0 14.139 11.462 25.6 25.6 25.6h76.8v51.2h-76.8c-14.138 0-25.6 11.461-25.6 25.6s11.462 25.6 25.6 25.6h102.4c14.138 0 25.6-11.461 25.6-25.6v-102.4c0-14.139-11.462-25.6-25.6-25.6h-76.8v-51.2h76.8c14.138 0 25.6-11.461 25.6-25.6s-11.462-25.6-25.6-25.6zM844.8 512h-102.4c-14.139 0-25.6-11.461-25.6-25.6s11.461-25.6 25.6-25.6h76.8v-51.2h-76.8c-14.139 0-25.6-11.461-25.6-25.6s11.461-25.6 25.6-25.6h76.8v-51.2h-76.8c-14.139 0-25.6-11.461-25.6-25.6s11.461-25.6 25.6-25.6h102.4c14.139 0 25.6 11.461 25.6 25.6v204.8c0 14.139-11.461 25.6-25.6 25.6z" />
<glyph unicode="&#xe6e4;" glyph-name="music-note" d="M691.2 768c-70.579 0-128 57.421-128 128 0 14.138-11.462 25.6-25.6 25.6s-25.6-11.462-25.6-25.6v-634.832c-6.986 4.722-14.629 9.182-22.936 13.336-42.166 21.085-97.662 32.696-156.264 32.696s-114.098-11.611-156.264-32.696c-47.806-23.902-74.136-57.749-74.136-95.304s26.33-71.402 74.136-95.304c42.166-21.085 97.662-32.696 156.264-32.696s114.098 11.611 156.264 32.696c47.808 23.902 74.136 57.749 74.136 95.304v591.506c32.55-33.246 77.906-53.906 128-53.906 70.579 0 128-57.421 128-128 0-14.139 11.461-25.6 25.6-25.6s25.6 11.461 25.6 25.6c0 98.811-80.389 179.2-179.2 179.2zM332.8 102.4c-102.563 0-179.2 40.547-179.2 76.8s76.637 76.8 179.2 76.8 179.2-40.547 179.2-76.8-76.637-76.8-179.2-76.8z" />
<glyph unicode="&#xe6e5;" glyph-name="music-note2" d="M1014.803 966.854c-5.826 4.864-13.509 6.891-20.982 5.533l-563.2-102.4c-12.173-2.213-21.021-12.816-21.021-25.187v-583.632c-6.986 4.722-14.629 9.181-22.936 13.336-42.166 21.085-97.662 32.696-156.264 32.696s-114.098-11.611-156.264-32.696c-47.806-23.902-74.136-57.749-74.136-95.304s26.33-71.402 74.136-95.304c42.166-21.085 97.662-32.696 156.264-32.696s114.098 11.611 156.264 32.696c47.806 23.902 74.136 57.749 74.136 95.304v644.235l512 93.091v-552.958c-6.984 4.722-14.629 9.182-22.936 13.336-42.166 21.085-97.662 32.696-156.264 32.696s-114.098-11.611-156.264-32.696c-47.808-23.902-74.136-57.749-74.136-95.304s26.328-71.402 74.136-95.304c42.166-21.085 97.662-32.696 156.264-32.696s114.098 11.611 156.264 32.696c47.808 23.902 74.136 57.749 74.136 95.304v665.6c0 7.59-3.368 14.79-9.197 19.654zM230.4 102.4c-102.563 0-179.2 40.547-179.2 76.8s76.637 76.8 179.2 76.8 179.2-40.547 179.2-76.8-76.637-76.8-179.2-76.8zM793.6 204.8c-102.565 0-179.2 40.547-179.2 76.8s76.635 76.8 179.2 76.8c102.566 0 179.2-40.547 179.2-76.8s-76.634-76.8-179.2-76.8z" />
<glyph unicode="&#xe6e9;" glyph-name="guitar" d="M486.4 460.8c-31.25 0-61.030 6.286-83.856 17.699-28.467 14.232-44.144 35.222-44.144 59.101s15.677 44.867 44.144 59.101c22.826 11.414 52.606 17.699 83.856 17.699s61.030-6.285 83.856-17.699c28.467-14.234 44.144-35.222 44.144-59.101s-15.677-44.869-44.144-59.101c-22.824-11.413-52.606-17.699-83.856-17.699zM486.4 563.2c-23.115 0-45.333-4.48-60.96-12.293-13.086-6.544-15.84-12.421-15.84-13.307s2.754-6.763 15.84-13.307c15.626-7.813 37.845-12.293 60.96-12.293s45.334 4.48 60.96 12.293c13.088 6.544 15.84 12.421 15.84 13.307s-2.754 6.763-15.84 13.307c-15.626 7.813-37.845 12.293-60.96 12.293zM639.957 307.2h-307.2c-14.138 0-25.6 11.461-25.6 25.6s11.462 25.6 25.6 25.6h307.2c14.139 0 25.6-11.461 25.6-25.6s-11.461-25.6-25.6-25.6zM827.894 427.597c-26.685 19.006-59.894 42.662-59.894 58.803 0 15.037 1.925 30.899 3.787 46.237 4.926 40.571 10.509 86.555-21.714 122.928-25.128 28.363-69.914 46.2-140.27 54.888l-40.586 186.28c11.246 2.699 19.614 12.794 19.614 24.867 0 3.317-0.63 6.486-1.778 9.395l-25.168 75.501c-3.485 10.453-13.267 17.504-24.286 17.504h-102.4c-11.019 0-20.802-7.051-24.286-17.504l-25.6-76.8c-2.602-7.806-1.294-16.389 3.518-23.064 3.61-5.010 8.862-8.486 14.736-9.91l-40.653-186.267c-70.341-8.688-115.114-26.52-140.23-54.877-32.211-36.366-26.618-82.341-21.683-122.904 1.867-15.352 3.798-31.226 3.798-46.274 0-16.144-33.21-39.798-59.896-58.806-43.922-31.285-93.704-66.744-93.704-120.394v-153.6c0-26.59 10.395-50.347 30.898-70.608 18.834-18.614 46.674-34.238 82.746-46.442 71.693-24.253 179.882-36.55 321.557-36.55 141.683 0 249.872 12.298 321.563 36.55 36.070 12.203 63.909 27.829 82.742 46.442 20.501 20.262 30.894 44.018 30.894 70.608v153.6c0 53.65-49.782 89.11-93.706 120.397zM453.651 972.8h65.498l8.533-25.6h-82.563l8.533 25.6zM455.814 896h61.162l39.424-180.947c-21.491 1.171-44.8 1.747-70.043 1.747-25.24 0-48.546-0.574-70.034-1.746l39.491 180.946zM174.608 385.891c40.016 28.502 81.392 57.974 81.392 100.509 0 18.152-2.122 35.59-4.173 52.454-4.802 39.469-6.926 64.582 9.186 82.773 25.843 29.178 101.659 43.973 225.344 43.973 123.701 0 199.536-14.8 225.394-43.987 16.125-18.2 14.005-43.323 9.211-82.805-2.046-16.85-4.162-34.274-4.162-52.408 0-42.533 41.376-72.005 81.39-100.506 33.846-24.11 72.21-51.435 72.21-78.694 0-64.12-143.566-102.4-384.043-102.4-240.422 0-383.957 38.28-383.957 102.4 0 27.258 38.363 54.582 72.208 78.691zM486.4 51.2c-240.448 0-384 38.28-384 102.4v66.403c16.757-11.472 37.646-21.47 62.421-29.853 71.682-24.253 179.862-36.55 321.536-36.55 141.686 0 249.882 12.298 321.582 36.55 24.792 8.384 45.696 18.387 62.461 29.864v-66.414c0-64.12-143.552-102.4-384-102.4z" />
<glyph unicode="&#xe6ef;" glyph-name="headphones" d="M947.2 254.584c-14.139 0-25.6 11.461-25.6 25.6v180.616c0 260.306-149.294 409.6-409.6 409.6s-409.6-149.294-409.6-409.6v-180.616c0-14.139-11.462-25.6-25.6-25.6s-25.6 11.461-25.6 25.6v180.616c0 77.499 12.12 147.173 36.022 207.086 22.805 57.163 56.445 105.88 99.984 144.8 79.709 71.251 192.021 108.914 324.794 108.914s245.085-37.662 324.794-108.914c43.539-38.92 77.178-87.637 99.984-144.8 23.902-59.914 36.022-129.587 36.022-207.086v-180.616c0-14.139-11.461-25.6-25.6-25.6zM332.8 512c-33.614 0-62.234-21.715-72.616-51.848-56.493-3.472-96.968-21.182-123.317-53.877-23.515-29.179-34.467-68.795-34.467-124.675s10.952-95.496 34.467-124.675c26.347-32.694 66.824-50.405 123.317-53.877 10.382-30.133 39.002-51.848 72.616-51.848 42.347 0 76.8 34.451 76.8 76.8v307.2c0 42.349-34.453 76.8-76.8 76.8zM153.6 281.6c0 72.237 17.907 119.358 102.4 126.92v-253.84c-84.493 7.562-102.4 54.683-102.4 126.92zM358.4 128c0-14.115-11.485-25.6-25.6-25.6s-25.6 11.485-25.6 25.6v307.2c0 14.115 11.485 25.6 25.6 25.6s25.6-11.485 25.6-25.6v-307.2zM887.133 406.275c-26.349 32.694-66.826 50.403-123.315 53.877-10.384 30.133-39.002 51.848-72.618 51.848-42.349 0-76.8-34.451-76.8-76.8v-307.2c0-42.349 34.451-76.8 76.8-76.8 33.616 0 62.234 21.715 72.618 51.848 56.491 3.474 96.966 21.182 123.315 53.877 23.515 29.179 34.467 68.795 34.467 124.675s-10.952 95.496-34.467 124.675zM691.2 102.4c-14.115 0-25.6 11.485-25.6 25.6v307.2c0 14.115 11.485 25.6 25.6 25.6s25.6-11.485 25.6-25.6v-307.2c0-14.115-11.485-25.6-25.6-25.6zM768 154.68v253.84c84.493-7.563 102.4-54.683 102.4-126.92s-17.907-119.358-102.4-126.92z" />
<glyph unicode="&#xe6f6;" glyph-name="presentation" d="M947.2 1024h-921.6c-14.138 0-25.6-11.462-25.6-25.6v-768c0-14.139 11.462-25.6 25.6-25.6h398.997l-161.099-161.099c-9.997-9.997-9.997-26.206 0-36.203 5-4.998 11.55-7.498 18.102-7.498s13.102 2.499 18.102 7.499l161.098 161.096v-142.995c0-14.139 11.462-25.6 25.6-25.6s25.6 11.461 25.6 25.6v142.997l161.099-161.099c4.998-4.998 11.549-7.498 18.101-7.498s13.102 2.499 18.101 7.499c9.998 9.997 9.998 26.206 0 36.203l-161.098 161.098h398.997c14.139 0 25.6 11.461 25.6 25.6v768c0 14.138-11.461 25.6-25.6 25.6zM51.2 972.8h870.4v-614.4h-870.4v614.4zM921.6 256h-870.4v51.2h870.4v-51.2zM654.682 686.573l-256 179.2c-7.822 5.475-18.037 6.142-26.502 1.734s-13.779-13.162-13.779-22.707v-358.4c0-9.546 5.31-18.299 13.778-22.706 3.72-1.938 7.778-2.894 11.821-2.894 5.16 0 10.299 1.558 14.683 4.629l256 179.2c6.842 4.789 10.918 12.618 10.918 20.971s-4.077 16.182-10.918 20.973zM409.6 535.568v260.064l185.76-130.032-185.76-130.032z" />
<glyph unicode="&#xe6f8;" glyph-name="film-play" d="M383.997 256c-3.902 0-7.822 0.891-11.445 2.702-8.674 4.336-14.152 13.2-14.152 22.898v460.8c0 9.698 5.478 18.562 14.152 22.898 8.67 4.334 19.051 3.4 26.808-2.418l307.2-230.4c6.446-4.834 10.24-12.422 10.24-20.48s-3.794-15.645-10.24-20.48l-307.2-230.4c-4.517-3.387-9.923-5.12-15.363-5.12zM409.6 691.2v-358.4l238.933 179.2-238.933 179.2zM998.4 921.6h-972.8c-14.138 0-25.6-11.462-25.6-25.6v-768c0-14.139 11.462-25.6 25.6-25.6h972.8c14.139 0 25.6 11.461 25.6 25.6v768c0 14.138-11.461 25.6-25.6 25.6zM153.6 460.8h-102.4v102.4h102.4v-102.4zM153.6 614.4h-102.4v102.4h102.4v-102.4zM51.2 409.6h102.4v-102.4h-102.4v102.4zM204.8 870.4h614.4v-716.8h-614.4v716.8zM870.4 563.2h102.4v-102.4h-102.4v102.4zM870.4 614.4v102.4h102.4v-102.4h-102.4zM870.4 409.6h102.4v-102.4h-102.4v102.4zM972.8 768h-102.4v102.4h102.4v-102.4zM153.6 870.4v-102.4h-102.4v102.4h102.4zM51.2 256h102.4v-102.4h-102.4v102.4zM870.4 153.6v102.4h102.4v-102.4h-102.4z" />
<glyph unicode="&#xe6f9;" glyph-name="clapboard-play" d="M896 921.6h-51.285c-0.029 0-0.058 0-0.086 0h-204.714c-0.030 0-0.058 0-0.088 0h-204.714c-0.029 0-0.058 0-0.086 0h-204.714c-0.029 0-0.058 0-0.086 0h-153.427c-42.347 0-76.8-34.453-76.8-76.8v-665.6c0-42.349 34.453-76.8 76.8-76.8h819.2c42.349 0 76.8 34.451 76.8 76.8v665.6c0 42.347-34.451 76.8-76.8 76.8zM921.6 844.8v-76.8h-131.366l68.267 102.4h37.499c14.115 0 25.6-11.485 25.6-25.6zM585.434 768l68.267 102.4h143.267l-68.267-102.4h-143.267zM380.634 768l68.267 102.4h143.267l-68.267-102.4h-143.267zM175.834 768l68.267 102.4h143.266l-68.267-102.4h-143.266zM76.8 870.4h105.766l-68.267-102.4h-63.099v76.8c0 14.115 11.485 25.6 25.6 25.6zM896 153.6h-819.2c-14.115 0-25.6 11.485-25.6 25.6v537.6h76.71c0.022 0 0.043-0.002 0.066-0.002 0.026 0 0.051 0.002 0.077 0.002h204.658c0.022 0 0.043-0.002 0.066-0.002 0.026 0 0.051 0.002 0.077 0.002h204.658c0.022 0 0.043-0.002 0.066-0.002 0.027 0 0.051 0.002 0.078 0.002h204.656c0.022 0 0.043-0.002 0.066-0.002 0.027 0 0.051 0.002 0.078 0.002h179.146v-537.6c0-14.115-11.485-25.6-25.6-25.6zM384 256c-4.347 0-8.696 1.106-12.613 3.323-8.026 4.544-12.987 13.053-12.987 22.277v307.2c0 9.224 4.962 17.733 12.987 22.277 8.027 4.544 17.877 4.422 25.784-0.325l256-153.6c7.709-4.627 12.429-12.96 12.429-21.952s-4.718-17.325-12.429-21.952l-256-153.6c-4.050-2.429-8.61-3.648-13.171-3.648zM409.6 543.586v-216.771l180.642 108.386-180.642 108.386z" />
<glyph unicode="&#xe704;" glyph-name="camera2" d="M486.4 256c-127.043 0-230.4 103.357-230.4 230.4s103.357 230.4 230.4 230.4c127.043 0 230.4-103.357 230.4-230.4s-103.357-230.4-230.4-230.4zM486.4 665.6c-98.811 0-179.2-80.389-179.2-179.2s80.389-179.2 179.2-179.2 179.2 80.389 179.2 179.2-80.389 179.2-179.2 179.2zM896 102.4h-819.2c-42.347 0-76.8 34.451-76.8 76.8v512c0 42.347 34.453 76.8 76.8 76.8h76.8c21.246 0 54.278 13.682 69.302 28.706l29.992 29.992c24.914 24.915 70.272 43.702 105.506 43.702h256c35.235 0 80.594-18.789 105.506-43.702l29.992-29.99c15.024-15.026 48.056-28.707 69.302-28.707h76.8c42.349 0 76.8-34.453 76.8-76.8v-512c0-42.349-34.451-76.8-76.8-76.8zM76.8 716.8c-14.115 0-25.6-11.485-25.6-25.6v-512c0-14.115 11.485-25.6 25.6-25.6h819.2c14.115 0 25.6 11.485 25.6 25.6v512c0 14.115-11.485 25.6-25.6 25.6h-76.8c-35.235 0-80.594 18.789-105.506 43.702l-29.992 29.99c-15.024 15.026-48.056 28.707-69.302 28.707h-256c-21.246 0-54.278-13.682-69.302-28.706l-29.992-29.992c-24.914-24.915-70.272-43.702-105.506-43.702h-76.8z" />
<glyph unicode="&#xe70e;" glyph-name="picture" d="M691.2 563.2c-70.579 0-128 57.421-128 128s57.421 128 128 128 128-57.421 128-128-57.421-128-128-128zM691.2 768c-42.347 0-76.8-34.453-76.8-76.8s34.453-76.8 76.8-76.8 76.8 34.453 76.8 76.8-34.453 76.8-76.8 76.8zM947.2 1024h-870.4c-42.347 0-76.8-34.453-76.8-76.8v-870.4c0-42.349 34.453-76.8 76.8-76.8h870.4c42.349 0 76.8 34.451 76.8 76.8v870.4c0 42.347-34.451 76.8-76.8 76.8zM51.2 76.8v246.102l214.902 236.392c4.333 4.766 10.051 7.434 16.101 7.51 6.022 0.029 11.835-2.443 16.288-7.099l486.397-508.506h-708.088c-14.115 0-25.6 11.485-25.6 25.6zM972.8 76.8c0-14.115-11.485-25.6-25.6-25.6h-91.461l-520.25 543.896c-14.376 15.029-33.534 23.146-53.936 22.904-20.405-0.259-39.347-8.877-53.336-24.266l-177.018-194.717v548.182c0 14.115 11.485 25.6 25.6 25.6h870.4c14.115 0 25.6-11.485 25.6-25.6v-870.4z" />
<glyph unicode="&#xe710;" glyph-name="picture3" d="M947.2 0h-870.4c-42.347 0-76.8 34.451-76.8 76.8v870.4c0 42.347 34.453 76.8 76.8 76.8h870.4c42.349 0 76.8-34.453 76.8-76.8v-870.4c0-42.349-34.451-76.8-76.8-76.8zM76.8 972.8c-14.115 0-25.6-11.485-25.6-25.6v-870.4c0-14.115 11.485-25.6 25.6-25.6h870.4c14.115 0 25.6 11.485 25.6 25.6v870.4c0 14.115-11.485 25.6-25.6 25.6h-870.4zM665.6 563.2c-56.464 0-102.4 45.936-102.4 102.4s45.936 102.4 102.4 102.4 102.4-45.936 102.4-102.4-45.936-102.4-102.4-102.4zM665.6 716.8c-28.232 0-51.2-22.968-51.2-51.2s22.968-51.2 51.2-51.2 51.2 22.968 51.2 51.2-22.968 51.2-51.2 51.2zM896 102.4h-358.4c-14.139 0-25.6 11.461-25.6 25.6s11.461 25.6 25.6 25.6h358.4c14.139 0 25.6-11.461 25.6-25.6s-11.461-25.6-25.6-25.6zM896 921.6h-768c-14.138 0-25.6-11.462-25.6-25.6v-614.4c0-14.139 11.462-25.6 25.6-25.6h768c14.139 0 25.6 11.461 25.6 25.6v614.4c0 14.138-11.461 25.6-25.6 25.6zM153.6 425.467l164.318 184.858c4.203 4.728 9.694 7.371 15.462 7.44 5.725 0.090 11.322-2.438 15.638-7.062l283.27-303.502h-478.69v118.267zM870.4 307.2h-168.075l-315.875 338.437c-14.269 15.288-33.312 23.605-53.691 23.325-20.354-0.246-39.214-8.992-53.107-24.621l-126.051-141.808v367.867h716.8v-563.2z" />
<glyph unicode="&#xe715;" glyph-name="bookmark" d="M742.4 102.4h-512c-14.138 0-25.6 11.461-25.6 25.6s11.462 25.6 25.6 25.6h512c14.139 0 25.6-11.461 25.6-25.6s-11.461-25.6-25.6-25.6zM844.8 870.4c-14.139 0-25.6-11.462-25.6-25.6v-768c0-14.115-11.485-25.6-25.6-25.6h-563.2c-42.347 0-76.8 34.451-76.8 76.8s34.453 76.8 76.8 76.8h460.8c42.349 0 76.8 34.451 76.8 76.8v614.4c0 42.347-34.451 76.8-76.8 76.8h-512c-42.347 0-76.8-34.453-76.8-76.8v-768c0-70.579 57.421-128 128-128h563.2c42.349 0 76.8 34.451 76.8 76.8v768c0 14.138-11.461 25.6-25.6 25.6zM307.2 921.6h102.4v-322.197l-33.099 33.098c-9.997 9.998-26.206 9.998-36.203 0l-33.098-33.098v322.197zM153.6 896c0 14.115 11.485 25.6 25.6 25.6h76.8v-384c0-10.354 6.237-19.69 15.803-23.651s20.576-1.771 27.899 5.55l58.698 58.698 58.699-58.698c4.898-4.899 11.445-7.499 18.107-7.499 3.298 0 6.624 0.637 9.792 1.949 9.565 3.962 15.802 13.298 15.802 23.651v384h230.4c14.115 0 25.6-11.485 25.6-25.6v-614.4c0-14.115-11.485-25.6-25.6-25.6h-460.8c-28.789 0-55.394-9.557-76.8-25.661v665.661z" />
<glyph unicode="&#xe716;" glyph-name="bookmark2" d="M793.605-0.002c-7.331 0-14.482 3.155-19.442 8.941l-287.763 335.723-287.763-335.723c-6.971-8.131-18.269-11.067-28.318-7.349-10.048 3.715-16.718 13.298-16.718 24.010v921.6c0 14.138 11.462 25.6 25.6 25.6h614.4c14.139 0 25.6-11.462 25.6-25.6v-921.6c0-10.712-6.67-20.294-16.718-24.010-2.899-1.074-5.904-1.592-8.877-1.592zM486.4 409.6c7.474 0 14.573-3.266 19.437-8.939l262.163-305.858v826.797h-563.2v-826.797l262.163 305.858c4.864 5.674 11.963 8.939 19.437 8.939z" />
<glyph unicode="&#xe717;" glyph-name="label" d="M640 153.6h-563.2c-42.347 0-76.8 34.451-76.8 76.8v512c0 42.347 34.453 76.8 76.8 76.8h563.2c36.024 0 80.581-20.869 103.643-48.544l190.445-228.534c26.038-31.245 26.038-80.198-0.002-111.443l-190.442-228.534c-23.064-27.675-67.621-48.544-103.645-48.544zM76.8 768c-14.115 0-25.6-11.485-25.6-25.6v-512c0-14.115 11.485-25.6 25.6-25.6h563.2c20.52 0 51.173 14.358 64.312 30.122l190.443 228.534c10.187 12.222 10.187 33.666 0.002 45.888l-190.446 228.534c-13.138 15.765-43.79 30.122-64.31 30.122h-563.2z" />
<glyph unicode="&#xe718;" glyph-name="library" d="M537.6 1024h-102.4c-42.347 0-76.8-34.453-76.8-76.8v-30.003c-8.013 2.842-16.626 4.403-25.6 4.403h-256c-42.347 0-76.8-34.453-76.8-76.8v-768c0-42.349 34.453-76.8 76.8-76.8h256c19.654 0 37.602 7.43 51.2 19.619 13.598-12.187 31.546-19.619 51.2-19.619h102.4c42.349 0 76.8 34.451 76.8 76.8v870.4c0 42.347-34.451 76.8-76.8 76.8zM332.8 51.2h-256c-14.115 0-25.6 11.485-25.6 25.6v768c0 14.115 11.485 25.6 25.6 25.6h256c14.115 0 25.6-11.485 25.6-25.6v-768c0-14.115-11.485-25.6-25.6-25.6zM563.2 76.8c0-14.115-11.485-25.6-25.6-25.6h-102.4c-14.115 0-25.6 11.485-25.6 25.6v870.4c0 14.115 11.485 25.6 25.6 25.6h102.4c14.115 0 25.6-11.485 25.6-25.6v-870.4zM281.6 716.8h-146.4c-14.138 0-25.6 11.462-25.6 25.6s11.462 25.6 25.6 25.6h146.4c14.138 0 25.6-11.462 25.6-25.6s-11.462-25.6-25.6-25.6zM952.856 19.298l-152.456-18.717c-42.034-5.165-80.426 24.834-85.586 66.869l-99.837 813.090c-5.163 42.032 24.834 80.426 66.867 85.587l152.454 18.72c42.034 5.162 80.427-24.835 85.586-66.867l99.835-813.094c5.165-42.034-24.83-80.427-66.864-85.587zM688.085 915.307c-14.010-1.72-24.008-14.518-22.288-28.528l99.834-813.094c1.72-14.011 14.518-24.011 28.528-22.29l152.456 18.718c14.010 1.718 24.010 14.517 22.291 28.528l-99.835 813.096c-1.72 14.010-14.52 24.010-28.53 22.29l-152.456-18.72zM808.442 775.333l-50.821-6.24c-14.034-1.723-26.806 8.258-28.53 22.29-1.722 14.032 8.256 26.805 22.291 28.528l50.819 6.24c14.034 1.723 26.806-8.256 28.53-22.29s-8.254-26.805-22.29-28.528z" />
<glyph unicode="&#xe71b;" glyph-name="profile" d="M947.2 153.6h-870.4c-42.347 0-76.8 34.451-76.8 76.8v563.2c0 42.347 34.453 76.8 76.8 76.8h870.4c42.349 0 76.8-34.453 76.8-76.8v-563.2c0-42.349-34.451-76.8-76.8-76.8zM76.8 819.2c-14.115 0-25.6-11.485-25.6-25.6v-563.2c0-14.115 11.485-25.6 25.6-25.6h870.4c14.115 0 25.6 11.485 25.6 25.6v563.2c0 14.115-11.485 25.6-25.6 25.6h-870.4zM435.232 307.2c-0.011 0.002-0.022 0.002-0.032 0h-256c-14.138 0-25.6 11.461-25.6 25.6 0 3.371 0.558 33.834 19.891 64.768 18.029 28.846 55.861 63.232 133.709 63.232s115.68-34.386 133.709-63.232c17.301-27.683 19.566-54.989 19.851-62.838 0.048-0.637 0.072-1.282 0.072-1.93 0-14.139-11.462-25.6-25.6-25.6zM210.786 358.4h192.83c-1.797 4.419-4.133 9.067-7.166 13.654-16.483 24.914-46.509 37.546-89.25 37.546s-72.766-12.632-89.248-37.546c-3.035-4.587-5.37-9.235-7.166-13.654zM844.8 614.4h-256c-14.139 0-25.6 11.461-25.6 25.6s11.461 25.6 25.6 25.6h256c14.139 0 25.6-11.461 25.6-25.6s-11.461-25.6-25.6-25.6zM793.6 512h-204.8c-14.139 0-25.6 11.461-25.6 25.6s11.461 25.6 25.6 25.6h204.8c14.139 0 25.6-11.461 25.6-25.6s-11.461-25.6-25.6-25.6zM793.6 409.6h-204.8c-14.139 0-25.6 11.461-25.6 25.6s11.461 25.6 25.6 25.6h204.8c14.139 0 25.6-11.461 25.6-25.6s-11.461-25.6-25.6-25.6zM307.2 512c-56.464 0-102.4 45.936-102.4 102.4s45.936 102.4 102.4 102.4 102.4-45.936 102.4-102.4c0-56.464-45.936-102.4-102.4-102.4zM307.2 665.6c-28.232 0-51.2-22.968-51.2-51.2s22.968-51.2 51.2-51.2 51.2 22.968 51.2 51.2-22.968 51.2-51.2 51.2zM844.8 307.2h-256c-14.139 0-25.6 11.461-25.6 25.6s11.461 25.6 25.6 25.6h256c14.139 0 25.6-11.461 25.6-25.6s-11.461-25.6-25.6-25.6z" />
<glyph unicode="&#xe71e;" glyph-name="user" d="M486.4 460.8c-155.275 0-281.6 126.325-281.6 281.6s126.325 281.6 281.6 281.6 281.6-126.325 281.6-281.6-126.325-281.6-281.6-281.6zM486.4 972.8c-127.043 0-230.4-103.357-230.4-230.4s103.357-230.4 230.4-230.4c127.042 0 230.4 103.357 230.4 230.4s-103.358 230.4-230.4 230.4zM896 0h-819.2c-42.347 0-76.8 34.451-76.8 76.8 0 3.485 0.712 86.285 62.72 168.96 36.094 48.126 85.514 86.36 146.883 113.634 74.957 33.314 168.085 50.206 276.797 50.206 108.71 0 201.838-16.893 276.797-50.206 61.37-27.275 110.789-65.507 146.883-113.634 62.008-82.675 62.72-165.475 62.72-168.96 0-42.349-34.451-76.8-76.8-76.8zM486.4 358.4c-178.52 0-310.267-48.789-381-141.093-53.011-69.174-54.195-139.904-54.2-140.61 0-14.013 11.485-25.498 25.6-25.498h819.2c14.115 0 25.6 11.485 25.6 25.6-0.006 0.603-1.189 71.333-54.198 140.507-70.734 92.304-202.483 141.093-381.002 141.093z" />
<glyph unicode="&#xe72c;" glyph-name="baby-bottle" d="M435.2 153.6h-51.2c-14.138 0-25.6 11.461-25.6 25.6s11.462 25.6 25.6 25.6h51.2c14.138 0 25.6-11.461 25.6-25.6s-11.462-25.6-25.6-25.6zM435.2 256h-51.2c-14.138 0-25.6 11.461-25.6 25.6s11.462 25.6 25.6 25.6h51.2c14.138 0 25.6-11.461 25.6-25.6s-11.462-25.6-25.6-25.6zM486.4 358.4h-102.4c-14.138 0-25.6 11.461-25.6 25.6s11.462 25.6 25.6 25.6h102.4c14.138 0 25.6-11.461 25.6-25.6s-11.462-25.6-25.6-25.6zM711.68 714.005c-12.971 60.606-49.95 113.406-102.323 146.467 3.325 11.525 5.043 23.517 5.043 35.528 0 70.579-57.421 128-128 128s-128-57.421-128-128c0-12.011 1.718-24.003 5.043-35.528-52.373-33.061-89.35-85.859-102.322-146.467-32.434-8.986-56.322-38.749-56.322-74.005v-51.2c0-33.373 21.403-61.829 51.2-72.397v-388.403c0-70.579 57.421-128 128-128h204.8c70.579 0 128 57.421 128 128v388.403c29.795 10.568 51.2 39.022 51.2 72.397v51.2c0 35.256-23.888 65.018-56.32 74.005zM406.776 826.171c6.141 3.053 10.802 8.44 12.936 14.958 2.134 6.517 1.565 13.619-1.582 19.712-5.661 10.96-8.53 22.79-8.53 35.158 0 42.347 34.453 76.8 76.8 76.8s76.8-34.453 76.8-76.8c0-12.368-2.87-24.197-8.53-35.158-3.147-6.094-3.715-13.195-1.581-19.712s6.794-11.906 12.934-14.958c44.95-22.339 78.099-62.168 92.146-109.371h-343.536c14.042 47.202 47.192 87.032 92.142 109.371zM588.8 51.2h-204.8c-42.347 0-76.8 34.453-76.8 76.8v384h358.4v-384c0-42.347-34.453-76.8-76.8-76.8zM716.8 588.8c0-14.115-11.485-25.6-25.6-25.6h-409.6c-14.115 0-25.6 11.485-25.6 25.6v51.2c0 14.115 11.485 25.6 25.6 25.6h409.6c14.115 0 25.6-11.485 25.6-25.6v-51.2z" />
<glyph unicode="&#xe738;" glyph-name="bow-tie" d="M943.386 673.488c-20.194 35.968-66.054 52.256-104.414 37.075l-231.915-91.786c-31.866 29.070-74.226 46.822-120.656 46.822s-88.79-17.752-120.656-46.822l-231.917 91.786c-38.357 15.182-84.221-1.106-104.414-37.075-3.011-5.363-29.413-56.173-29.413-187.088s26.402-181.725 29.413-187.088c15.082-26.862 44.475-42.747 74.371-42.746 10.134 0 20.333 1.827 30.043 5.67l231.915 91.784c31.867-29.069 74.227-46.821 120.658-46.821s88.79 17.752 120.658 46.822l231.914-91.784c9.712-3.843 19.904-5.67 30.042-5.67 29.894 0.002 59.293 15.885 74.373 42.746 3.011 5.362 29.414 56.171 29.414 187.086s-26.403 181.725-29.414 187.088zM114.987 309.843c-14.205-5.624-33.205 1.067-40.806 14.32-1.173 2.338-22.981 47.603-22.981 162.237 0 114.621 21.803 159.886 22.979 162.235 7.602 13.253 26.602 19.942 40.806 14.318l216.923-85.851c-11.568-19.627-19.501-41.637-22.872-65.104h-78.637c-14.138 0-25.6-11.461-25.6-25.6s11.462-25.6 25.6-25.6h78.637c3.371-23.467 11.304-45.477 22.872-65.104l-216.922-85.851zM486.4 358.4c-70.579 0-128 57.421-128 128s57.421 128 128 128 128-57.421 128-128-57.421-128-128-128zM898.621 324.165c-7.603-13.253-26.602-19.938-40.808-14.32l-216.922 85.851c11.566 19.629 19.501 41.637 22.874 65.104h78.635c14.139 0 25.6 11.461 25.6 25.6s-11.461 25.6-25.6 25.6h-78.635c-3.371 23.467-11.304 45.477-22.874 65.104l216.922 85.851c14.205 5.621 33.205-1.064 40.808-14.318 1.17-2.338 22.979-47.602 22.979-162.237 0-114.634-21.81-159.899-22.979-162.235z" />
<glyph unicode="&#xe739;" glyph-name="tie" d="M665.32 131.774l-100.318 672.77c15.131 13.909 30.299 31.747 45.445 53.514 28.528 40.992 46.968 81.437 47.741 83.139 9.198 20.302 8.499 41.216-1.92 57.374-10.419 16.162-29.178 25.429-51.467 25.429h-236.8c-22.29 0-41.050-9.267-51.467-25.427-10.419-16.158-11.118-37.070-1.918-57.374 0.771-1.701 19.211-42.147 47.739-83.139 14.958-21.494 29.934-39.157 44.878-52.989l-99.755-673.318c-1.451-9.8 2.88-19.557 11.123-25.051l153.6-102.4c4.299-2.867 9.25-4.301 14.2-4.301s9.901 1.434 14.2 4.301l153.6 102.4c8.25 5.499 12.582 15.267 11.12 25.074zM361.25 962.33c-2.443 5.394-1.896 8.174-1.686 8.499s2.517 1.971 8.437 1.971h236.8c5.92 0 8.229-1.646 8.437-1.971s0.757-3.106-1.686-8.499c-15.677-34.597-51.81-96.475-88.010-126.232-1.294-0.853-2.504-1.811-3.614-2.872-11.451-8.723-22.843-14.026-33.526-14.026-21.901 0-51.653 24.619-81.63 67.544-25.966 37.181-43.352 75.218-43.52 75.586zM486.4 56.366l-125.899 83.933 93.909 633.866c10.718-4.093 21.389-6.165 31.99-6.165 10.406 0 20.88 1.992 31.4 5.934l94.485-633.643-125.885-83.925z" />
<glyph unicode="&#xe73a;" glyph-name="socks" d="M640 716.8c-14.139 0-25.6 11.462-25.6 25.6v153.6c0 14.138 11.461 25.6 25.6 25.6s25.6-11.462 25.6-25.6v-153.6c0-14.138-11.461-25.6-25.6-25.6zM742.4 716.8c-14.139 0-25.6 11.462-25.6 25.6v153.6c0 14.138 11.461 25.6 25.6 25.6s25.6-11.462 25.6-25.6v-153.6c0-14.138-11.461-25.6-25.6-25.6zM844.8 716.8c-14.139 0-25.6 11.462-25.6 25.6v153.6c0 14.138 11.461 25.6 25.6 25.6s25.6-11.462 25.6-25.6v-153.6c0-14.138-11.461-25.6-25.6-25.6zM896 1024h-307.2c-42.349 0-76.8-34.453-76.8-76.8v-256c0-18.23-15.069-41.8-31.616-49.451l-337.533-156.066c-0.218-0.099-0.434-0.205-0.65-0.31-42.038-20.893-77.547-52.941-102.686-92.677-25.851-40.864-39.515-88.133-39.515-136.696 0-141.16 114.842-256 256-256 39.893 0 78.128 8.938 113.65 26.565l496.37 238.776c59.878 28.803 106.781 103.414 106.781 169.859v512c0 42.347-34.451 76.8-76.8 76.8zM51.2 256c0 58.253 24.133 112.070 65.374 150.182 109.429-19.008 190.626-114.685 190.626-226.982 0-45.914-13.298-89.792-38.546-127.613-4.194-0.251-8.411-0.387-12.654-0.387-112.928 0-204.8 91.874-204.8 204.8zM347.307 72.634c-0.099-0.048-0.198-0.098-0.296-0.146-3.882-1.93-7.81-3.717-11.771-5.386 15.248 35.053 23.16 72.973 23.16 112.098 0 120.053-75.96 224.563-184.53 264.418l328 151.659c34.39 15.899 61.33 58.035 61.33 95.923v256c0 14.115 11.485 25.6 25.6 25.6h307.2c14.115 0 25.6-11.485 25.6-25.6v-333.976c-143.322-12.978-256-133.779-256-280.424 0-34.104 5.966-67.136 17.726-98.525l-336.019-161.642zM843.824 311.482l-114.139-54.906c-8.558 24.35-12.885 49.891-12.885 76.224 0 118.389 89.762 216.194 204.8 228.97v-126.57c0-46.782-35.618-103.438-77.776-123.718z" />
<glyph unicode="&#xe73c;" glyph-name="shoes" d="M985.306 782.722c-9.232 9.416-18.398 17.738-24.802 23.338-3.776 27.765-19.242 55.306-46.41 82.45-81.992 81.926-139.75 84.291-146.066 84.291-0.090 0-0.205 0-0.293-0.002-8.558-0.088-16.506-4.446-21.179-11.616-7.885-12.091-16.205-24.821-24.843-38.006-61.562 48.526-102.63 49.707-107.579 49.622-8.557-0.090-16.502-4.448-21.176-11.616-0.906-1.39-87.512-134.168-163.982-247.75-9.122 2.283-15.472 3.085-16.365 3.19-11.037 1.306-21.656-4.658-26.285-14.763-6.091-13.301-11.842-38.966-18.645-78.259-3.368-4.842-6.518-9.347-9.461-13.533 1.821 15.677 1.955 27.546-0.853 37.13-17.334 59.176-95.058 69.035-98.357 69.426-11.045 1.306-21.658-4.658-26.285-14.763-10.677-23.31-20.298-84.522-36.386-190.704-2.811-18.557-5.725-37.778-8.744-57.323-25.294-163.688-28.366-166.848-107.090-247.824-9.773-10.053-20.851-21.446-33.136-34.346-20.731-21.765-36-48.928-42.998-76.488-7.211-28.405-4.682-53.262 6.936-68.2 18.693-24.035 40.422-26.64 44.589-26.918 0.566-0.037 1.134-0.056 1.702-0.056 2.765 0 5.515 0.448 8.144 1.33 1.776 0.597 36.24 12.378 90.302 44.941 1.806-7.477 4.754-14.016 8.861-19.296 18.693-24.035 40.424-26.64 44.59-26.918 0.566-0.037 1.136-0.056 1.702-0.056 2.765 0 5.515 0.448 8.144 1.33 5.15 1.728 127.862 44.054 278.904 194.906 142.235 142.053 172.712 201.936 192.878 241.562 7.002 13.758 11.629 22.846 19.421 31.838 13.146 15.17 42.062 46.627 75.546 83.053 2.117 2.302 4.246 4.621 6.382 6.944l32.506-39.757c4.592-5.618 11.355-9.022 18.602-9.366 0.408-0.019 0.813-0.030 1.219-0.030 6.816 0 13.37 2.722 18.189 7.589 0.387 0.392 39.2 39.626 77.499 81.494 77.226 84.426 83.51 103.045 83.51 117.238 0 18.298-11.933 38.627-38.694 65.922zM626.52 918.947c13.093-4.027 36.434-14.059 66.958-38.758-63.451-96.376-136.493-205.802-181.675-270.277 1.837 15.754 1.982 27.67-0.834 37.285-6.019 20.547-19.32 35.144-34.258 45.467 60.554 90.088 125.989 189.872 149.808 226.283zM163.107 111.501c-51.512-34.72-90.043-52.157-105.816-58.605-1.426 1.021-3.157 2.547-5.014 4.816-2.979 8.434 0.854 45.766 32.165 78.637 12.106 12.707 23.086 24.003 32.774 33.968 40.85 42.018 65.506 67.379 82.426 105.058 15.997 35.624 24.467 79.48 38.554 170.635 3.029 19.597 5.947 38.867 8.766 57.474 9.29 61.307 18.826 124.248 26.464 157.237 14.376-4.995 30.512-13.814 34.733-27.67 1.262-7.093-2.848-32.358-5.064-45.973-2.090-12.842-4.062-24.971-4.872-35.139-0.75-9.445-2.51-31.565 15.71-41.581 5.502-3.027 20.026-8.41 36.813 6.12-0.269-1.771-0.534-3.523-0.806-5.322-2.811-18.558-5.725-37.779-8.744-57.325-25.294-163.688-28.366-166.848-107.090-247.824-9.773-10.053-20.851-21.446-33.136-34.346-16.616-17.442-29.71-38.357-37.862-60.16zM671.854 503.166c-11.893-13.722-18.595-26.896-26.36-42.149-18.696-36.736-46.95-92.253-183.429-228.555-120.635-120.483-222.739-167.87-251.19-179.557-1.422 1.019-3.147 2.544-5 4.805-2.981 8.434 0.854 45.766 32.165 78.637 12.106 12.707 23.086 24.003 32.774 33.968 40.85 42.018 65.506 67.379 82.426 105.058 15.998 35.624 24.467 79.478 38.554 170.635 3.029 19.597 5.947 38.869 8.766 57.474 9.288 61.299 18.821 124.229 26.459 157.222 14.173-4.933 30.486-13.698 34.736-27.654 1.262-7.093-2.848-32.36-5.062-45.976-5.888-36.189-9.131-56.123 2.787-70.136 5.459-6.418 13.403-10.099 21.798-10.099 12.246 0 20.802 7.605 23.613 10.104 6.098 5.419 20.374 18.112 155.093 220.040 50.856 76.23 100.104 151.344 120.104 181.918 17.416-5.299 52.064-20.902 97.814-66.614 45.139-45.102 37.118-75.88 11.189-108.216-23.094-28.798-88.301-99.736-140.699-156.736-33.75-36.718-62.901-68.432-76.538-84.168zM897.538 628.482c-18.965-20.595-37.634-40.136-51.053-54.019l-19.032 23.277c42.758 46.688 83.304 91.506 101.586 114.304 8.912 11.114 15.981 22.222 21.214 33.317 10.566-10.989 18.701-21.048 21.634-27.16-4.269-7.533-19.736-30.41-74.349-89.718z" />
<glyph unicode="&#xe73d;" glyph-name="hat" d="M888.322 491.107l33.278 249.594v1.699c0 41.795-22.419 99.875-129.222 139.222-70.994 26.154-167.946 39.978-280.378 39.978s-209.384-13.824-280.379-39.978c-106.802-39.347-129.221-97.427-129.221-139.222v-1.699l33.28-249.597c-87.712-41.981-135.68-97.638-135.68-158.304 0-65.666 56.158-125.474 158.13-168.41 94.941-39.974 220.614-61.99 353.87-61.99s258.93 22.016 353.87 61.99c101.971 42.936 158.13 102.744 158.13 168.41 0 60.637-47.978 116.328-135.678 158.307zM839.498 512.323c-62.613-31.43-189.432-51.523-327.498-51.523s-264.882 20.093-327.498 51.523l-28.416 213.128c76.621-41.090 223.949-59.851 355.914-59.851 132.792 0 279.466 18.784 355.914 59.861l-28.416-213.138zM285.749 428.768l-63.426-80.242c-10.438 5.040-15.698 9.248-17.541 11.701l-12.427 93.206c26.352-9.674 57.936-17.973 93.394-24.666zM343.834 419.688c29.95-3.802 61.76-6.587 94.821-8.256l-67.085-96.918c-27.16 2.989-52.557 6.853-75.374 11.531-8.104 1.661-15.546 3.357-22.379 5.061l70.018 88.582zM499.694 409.654c4.090-0.034 8.19-0.054 12.306-0.054 26.821 0 53.147 0.722 78.702 2.11l-67.186-104.459c-3.832-0.032-7.669-0.051-11.517-0.051-27.784 0-55.171 0.811-81.576 2.378l69.27 100.077zM654.829 416.762c30.645 3.2 59.635 7.421 86.368 12.565l-65.806-112.021c-27.963-3.742-58.221-6.499-89.79-8.176l69.229 107.632zM810.57 446.333c7.347 2.277 14.381 4.643 21.075 7.101l-12.429-93.206c-3.981-5.296-23.811-18.744-77.531-31.157l68.885 117.262zM249.32 833.578c64.454 23.746 157.744 36.822 262.68 36.822 104.938 0 198.226-13.077 262.68-36.822 30.595-11.272 65.288-28.832 83.326-54.226-16.659-12.238-49.984-26.923-104.501-39.157-67.227-15.086-152.997-23.395-241.506-23.395-87.2 0-171.994 8.091-238.757 22.784-63.416 13.957-93.422 29.605-107.229 39.8 18.046 25.376 52.722 42.926 83.306 54.194zM846.003 211.578c-88.797-37.387-207.414-57.978-334.003-57.978s-245.206 20.59-334.002 57.978c-80.582 33.93-126.798 78.114-126.798 121.222 0 36.381 32.92 73.531 91.635 104.634l10.806-81.053c1.453-34.086 39.854-59.366 117.275-77.232 64.691-14.926 150.309-23.149 241.083-23.149s176.392 8.222 241.082 23.15c77.421 17.866 115.824 43.146 117.277 77.232l10.805 81.040c58.694-31.107 91.637-68.274 91.637-104.622 0-43.109-46.216-87.293-126.797-121.222z" />
<glyph unicode="&#xe73e;" glyph-name="pants" d="M972.451 81.008l-153.6 921.6c-2.058 12.344-12.738 21.392-25.251 21.392h-614.4c-12.514 0-23.195-9.048-25.251-21.392l-153.6-921.6c-2.272-13.629 6.682-26.602 20.232-29.31l256-51.2c12.882-2.571 25.626 5.019 29.488 17.574l180.331 586.078 180.333-586.078c3.357-10.912 13.418-18.075 24.448-18.075 1.664 0 3.352 0.163 5.038 0.499l256 51.2c13.549 2.71 22.504 15.683 20.232 29.312zM805.947 768.6c-4.093-0.392-8.211-0.6-12.347-0.6-61.814 0-113.531 44.045-125.426 102.4h120.806l16.966-101.8zM780.446 921.6h-217.246v51.2h208.714l8.533-51.2zM460.8 921.6v51.2h51.2v-51.2h-51.2zM409.6 972.8v-51.2h-217.246l8.533 51.2h208.714zM183.821 870.4h120.803c-11.893-58.355-63.61-102.4-125.424-102.4-4.136 0-8.254 0.208-12.347 0.6l16.968 101.8zM708.864 55.24l-197.997 643.488c-3.304 10.742-13.229 18.072-24.467 18.072s-21.163-7.33-24.467-18.070l-197.997-643.488-209.008 41.802 103.498 620.979c6.875-0.797 13.81-1.222 20.774-1.222 90.12 0 164.902 66.874 177.363 153.6h259.672c12.461-86.726 87.243-153.6 177.365-153.6 6.965 0 13.899 0.426 20.776 1.221l103.498-620.979-209.010-41.802z" />
<glyph unicode="&#xe73f;" glyph-name="shorts" d="M971.17 392.989l-153.6 409.6c-3.746 9.992-13.298 16.611-23.97 16.611h-614.4c-10.67 0-20.224-6.619-23.97-16.611l-153.6-409.6c-4.6-12.267 0.803-26.029 12.522-31.886l307.2-153.6c11.066-5.536 24.504-2.362 31.928 7.538l133.12 177.493 133.12-177.493c4.971-6.632 12.642-10.242 20.493-10.242 3.869 0 7.782 0.878 11.435 2.704l307.2 153.6c11.718 5.859 17.122 19.619 12.522 31.886zM196.941 768h578.918l19.2-51.2h-617.318l19.2 51.2zM647.661 262.851l-140.781 187.709c-4.834 6.446-12.422 10.24-20.48 10.24s-15.645-3.794-20.48-10.24l-140.781-187.707-267.477 133.738 100.878 269.010h234.352c-2.827-3.81-5.565-7.814-8.2-12.032-17.939-28.702-25.226-57.354-25.528-58.56-3.429-13.717 4.91-27.614 18.627-31.045 13.717-3.429 27.614 4.91 31.045 18.627 0.206 0.83 22.296 83.010 77.563 83.010 55.507 0 77.221-81.682 77.578-83.062 2.926-11.603 13.349-19.344 24.803-19.344 2.054 0 4.144 0.25 6.229 0.77 13.715 3.43 22.054 17.328 18.627 31.045-0.301 1.206-7.587 29.858-25.526 58.56-2.635 4.218-5.374 8.222-8.2 12.032h234.35l100.878-269.010-267.478-133.739z" />
<glyph unicode="&#xe740;" glyph-name="flip-flops" d="M1008.835 575.512c8.050 46.403 15.165 98.962 15.165 166.888 0 112.322-57.99 179.293-106.637 215.698-55.147 41.266-130.125 65.902-200.563 65.902-40.19 0-94.851-16.042-127.022-92.467-17.635-41.899-26.578-96.918-26.578-163.533 0-55.92 9.442-102.67 18.946-142.466-11.584-28.184-18.946-57.901-18.946-87.934 0-65.867 24.19-119.058 50.166-157.197-0.544-16.315-1.234-32.616-1.915-48.456-4.914-114.301-9.555-222.262 48.608-282.979 30.573-31.915 74.256-47.432 133.542-47.432 41.566 0 76.539 10.202 103.949 30.323 23.909 17.552 42.213 42.805 54.398 75.061 20.851 55.189 20.851 121.445 20.851 174.68 0 30.435 1.15 59.234 3.478 87.781 23.653 30.57 47.722 77.646 47.722 142.619 0 20.189-5.093 41.387-15.165 63.512zM716.8 972.8c98.976 0 256-62.55 256-230.4 0-38.347-2.421-71.616-6.003-101.61-20.926 25.541-47.53 52.072-79.818 79.515-48.733 41.424-96.899 73.458-118.979 87.51v36.984c0 14.138-11.461 25.6-25.6 25.6s-25.6-11.462-25.6-25.6v-39.57c-18.52-16.645-60.963-57.304-96.557-109.952-3.486 22.387-5.843 46.568-5.843 72.722 0 76.486 13.302 204.8 102.4 204.8zM793.6 52.736c-44.579 0-76.166 10.354-96.568 31.65-42.206 44.058-39.005 138.517-34.686 239.339 7.507-6.846 12.574-10.714 13.496-11.405 11.288-8.467 27.27-6.181 35.768 5.085s6.248 27.304-4.994 35.834c-0.922 0.699-92.216 71.27-92.216 184.362 0 93.075 94.688 190.395 130.71 224.048 22.514-14.55 65.757-43.843 108.709-80.354 76.726-65.216 118.981-125.339 118.981-169.294 0-45.901-14.61-85.97-43.422-119.101-22.072-25.379-44.71-37.142-44.827-37.203-12.645-6.322-17.771-21.699-11.448-34.346 4.485-8.971 13.525-14.158 22.917-14.158 3.846 0.002 7.754 0.872 11.429 2.709 0.525 0.262 6.186 3.134 14.722 8.851-0.378-12.181-0.57-24.531-0.57-37.152 0-125.216-9.632-228.864-128-228.864zM441.854 627.070c9.504 39.795 18.946 86.547 18.946 142.466 0 66.614-8.942 121.634-26.578 163.533-32.17 76.426-86.832 92.467-127.022 92.467-70.438 0-145.416-24.637-200.562-65.902-48.648-36.405-106.638-103.376-106.638-215.698 0-67.925 7.117-120.483 15.165-166.886-10.072-22.126-15.165-43.325-15.165-63.514 0-64.973 24.067-112.048 47.722-142.619 2.328-28.547 3.478-57.346 3.478-87.781 0-53.235 0-119.491 20.853-174.68 12.187-32.256 30.49-57.509 54.398-75.061 27.41-20.122 62.384-30.323 103.949-30.323 59.286 0 102.968 15.515 133.542 47.432 58.163 60.717 53.522 168.68 48.608 282.979-0.682 15.84-1.371 32.141-1.917 48.456 25.974 38.139 50.166 91.33 50.166 157.197 0 30.034-7.362 59.75-18.946 87.934zM312.32 318.976c8.482-11.31 24.528-13.602 35.84-5.12 0.92 0.691 5.989 4.558 13.496 11.406 4.318-100.824 7.518-195.283-34.686-239.341-20.4-21.298-51.989-31.65-96.568-31.65-118.368 0-128 103.648-128 228.864 0 12.621-0.192 24.97-0.57 37.155 8.534-5.715 14.197-8.589 14.722-8.851 3.675-1.837 7.581-2.709 11.429-2.709 9.39 0.002 18.432 5.187 22.917 14.158 6.323 12.645 1.197 28.024-11.45 34.346-0.883 0.44-88.25 45.405-88.25 156.301 0 43.853 42.080 103.827 118.486 168.875 43.022 36.626 86.579 66.138 109.205 80.768 36.038-33.666 130.709-130.976 130.709-224.043 0-113.091-91.294-183.662-92.216-184.363-11.262-8.493-13.533-24.504-5.064-35.797zM403.757 696.814c-35.594 52.65-78.035 93.307-96.557 109.952v39.57c0 14.138-11.462 25.6-25.6 25.6s-25.6-11.462-25.6-25.6v-36.984c-22.080-14.053-70.246-46.086-118.979-87.51-32.288-27.443-58.891-53.974-79.818-79.517-3.582 29.995-6.003 63.264-6.003 101.611 0 167.85 157.024 230.4 256 230.4 89.098 0 102.4-128.314 102.4-204.8 0-26.154-2.357-50.334-5.843-72.722z" />
<glyph unicode="&#xe741;" glyph-name="shirt" d="M691.2 51.2h-409.6c-42.347 0-76.8 34.451-76.8 76.8v476.482l-119.904-39.968c-13.414-4.472-27.91 2.778-32.381 16.19l-51.2 153.6c-4.029 12.086 1.442 25.296 12.837 30.994l307.2 153.6c7.936 3.968 17.36 3.542 24.907-1.122s12.141-12.904 12.141-21.776c0-70.579 57.421-128 128-128s128 57.421 128 128c0 8.872 4.594 17.112 12.141 21.776 7.547 4.666 16.971 5.090 24.907 1.122l307.2-153.6c11.395-5.698 16.867-18.907 12.837-30.994l-51.2-153.6c-4.47-13.411-18.966-20.662-32.381-16.19l-119.904 39.968v-476.482c0-42.349-34.451-76.8-76.8-76.8zM230.398 665.6c5.307 0 10.555-1.65 14.97-4.832 6.675-4.811 10.632-12.539 10.632-20.768v-512c0-14.115 11.485-25.6 25.6-25.6h409.6c14.115 0 25.6 11.485 25.6 25.6v512c0 8.229 3.957 15.957 10.632 20.768 6.677 4.811 15.258 6.123 23.064 3.518l129.314-43.104 36.083 108.25-254.624 127.312c-17.946-79.995-89.538-139.944-174.869-139.944-85.333 0-156.925 59.949-174.869 139.944l-254.624-127.312 36.083-108.25 129.314 43.104c2.645 0.88 5.378 1.314 8.094 1.314z" />
<glyph unicode="&#xe742;" glyph-name="hanger" d="M819.2 102.4h-665.6c-14.138 0-25.6 11.461-25.6 25.6s11.462 25.6 25.6 25.6h665.6c14.139 0 25.6-11.461 25.6-25.6s-11.461-25.6-25.6-25.6zM922.211 270.061l-339.026 260.626c-19.814 15.232-44.451 25.32-71.186 29.4v28.714c0 24.411 14.8 36.701 40.96 56.32 27.373 20.53 61.44 46.080 61.44 97.28 0 70.579-57.421 128-128 128s-128-57.421-128-128c0-14.138 11.462-25.6 25.6-25.6s25.6 11.462 25.6 25.6c0 42.347 34.453 76.8 76.8 76.8 42.349 0 76.8-34.453 76.8-76.8 0-24.411-14.8-36.701-40.96-56.32-27.373-20.53-61.44-46.080-61.44-97.28v-28.304c-26.89-3.637-51.818-13.326-71.862-28.221l-337.509-250.789c-29.32-21.787-51.429-65.76-51.429-102.286v-51.2c0-8.885 4.606-17.134 12.171-21.795 7.563-4.661 17.003-5.062 24.941-1.070l369.338 185.952c20.525 10.334 49.666 16.261 79.949 16.261s59.426-5.926 79.95-16.261l369.338-185.952c3.632-1.829 7.574-2.734 11.51-2.734 4.669 0 9.326 1.277 13.43 3.805 7.566 4.661 12.173 12.91 12.173 21.795v39.362c0 36.378-21.749 80.531-50.589 102.699zM589.374 336.818c-27.834 14.013-64.403 21.73-102.974 21.73s-75.142-7.717-102.974-21.73l-332.226-167.267v9.65c0 20.059 14.664 49.226 30.766 61.189l337.51 250.789c17.144 12.738 40.357 19.754 65.362 19.754 25.445 0 49.918-7.594 67.144-20.835l339.026-260.627c15.434-11.864 29.542-39.8 30.538-59.891l-332.171 167.24z" />
<glyph unicode="&#xe743;" glyph-name="laundry" d="M716.8 844.8c0-14.138-11.462-25.6-25.6-25.6s-25.6 11.462-25.6 25.6c0 14.138 11.462 25.6 25.6 25.6s25.6-11.462 25.6-25.6zM819.2 844.8c0-14.138-11.462-25.6-25.6-25.6s-25.6 11.462-25.6 25.6c0 14.138 11.462 25.6 25.6 25.6s25.6-11.462 25.6-25.6zM486.4 102.4c-155.275 0-281.6 126.325-281.6 281.6s126.325 281.6 281.6 281.6 281.6-126.325 281.6-281.6-126.325-281.6-281.6-281.6zM486.4 614.4c-127.043 0-230.4-103.358-230.4-230.4s103.357-230.4 230.4-230.4c127.042 0 230.4 103.358 230.4 230.4s-103.358 230.4-230.4 230.4zM486.4 204.8c-14.138 0-25.6 11.461-25.6 25.6s11.462 25.6 25.6 25.6c70.579 0 128 57.421 128 128 0 14.139 11.461 25.6 25.6 25.6s25.6-11.461 25.6-25.6c0-98.811-80.389-179.2-179.2-179.2zM793.6 972.8h-614.4c-70.579 0-128-57.421-128-128v-768c0-42.349 34.453-76.8 76.8-76.8h716.8c42.349 0 76.8 34.451 76.8 76.8v768c0 70.579-57.421 128-128 128zM179.2 921.6h614.4c42.349 0 76.8-34.453 76.8-76.8v-76.8h-768v76.8c0 42.347 34.453 76.8 76.8 76.8zM870.4 76.8c0-14.115-11.485-25.6-25.6-25.6h-716.8c-14.115 0-25.6 11.485-25.6 25.6v640h768v-640zM281.6 819.2h-102.4c-14.138 0-25.6 11.462-25.6 25.6s11.462 25.6 25.6 25.6h102.4c14.138 0 25.6-11.462 25.6-25.6s-11.462-25.6-25.6-25.6z" />
<glyph unicode="&#xe744;" glyph-name="store" d="M921.6 537.6v51.2c0 3.974-0.925 7.894-2.702 11.448l-102.4 204.8c-4.336 8.674-13.2 14.152-22.898 14.152h-614.4c-9.698 0-18.562-5.478-22.898-14.152l-102.4-204.8c-1.778-3.554-2.702-7.474-2.702-11.448v-51.2c0-41.786 20.131-78.955 51.2-102.33v-332.87h-25.6c-14.138 0-25.6-11.461-25.6-25.6s11.462-25.6 25.6-25.6h819.2c14.139 0 25.6 11.461 25.6 25.6s-11.461 25.6-25.6 25.6h-25.598v332.87c31.067 23.376 51.198 60.544 51.198 102.33zM588.8 460.8c-42.347 0-76.8 34.453-76.8 76.8v25.6h153.6v-25.6c0-42.347-34.453-76.8-76.8-76.8zM102.4 537.6v25.6h153.6v-25.6c0-42.347-34.453-76.8-76.8-76.8s-76.8 34.453-76.8 76.8zM460.8 768v-153.6h-146.413l38.4 153.6h108.013zM620.013 768l38.4-153.6h-146.413v153.6h108.013zM307.2 563.2h153.6v-25.6c0-42.347-34.453-76.8-76.8-76.8s-76.8 34.453-76.8 76.8v25.6zM716.8 563.2h153.6v-25.6c0-42.347-34.453-76.8-76.8-76.8s-76.8 34.453-76.8 76.8v25.6zM854.578 614.4h-143.39l-38.4 153.6h104.99l76.8-153.6zM195.022 768h104.99l-38.4-153.6h-143.39l76.8 153.6zM153.6 412.174c8.274-1.686 16.835-2.574 25.6-2.574 41.827 0 79.029 20.168 102.4 51.29 23.371-31.122 60.573-51.29 102.4-51.29s79.029 20.168 102.4 51.29c18.474-24.598 45.589-42.354 76.8-48.714v-309.776h-409.6v309.774zM819.202 102.4h-204.802v309.774c31.211 6.362 58.325 24.115 76.8 48.714 23.371-31.12 60.573-51.288 102.4-51.288 8.766 0 17.326 0.89 25.602 2.576v-309.776zM716.8 281.6c0-14.138-11.462-25.6-25.6-25.6s-25.6 11.462-25.6 25.6c0 14.138 11.462 25.6 25.6 25.6s25.6-11.462 25.6-25.6zM230.4 256c-6.552 0-13.102 2.499-18.102 7.499-9.997 9.997-9.997 26.206 0 36.203l51.2 51.2c9.998 9.997 26.206 9.997 36.205 0 9.997-9.997 9.997-26.206 0-36.203l-51.2-51.2c-5-5-11.55-7.499-18.102-7.499zM281.6 153.6c-6.552 0-13.102 2.499-18.101 7.499-9.998 9.997-9.998 26.206 0 36.203l153.6 153.6c9.997 9.997 26.206 9.997 36.203 0 9.998-9.997 9.998-26.206 0-36.203l-153.6-153.6c-5-5-11.55-7.499-18.102-7.499zM435.2 153.6c-6.552 0-13.102 2.499-18.102 7.499-9.997 9.997-9.997 26.206 0 36.203l51.2 51.2c9.998 9.997 26.206 9.997 36.205 0s9.998-26.206 0-36.203l-51.2-51.2c-5-5-11.55-7.499-18.102-7.499z" />
<glyph unicode="&#xe746;" glyph-name="store-24" d="M921.6 537.6v51.2c0 3.974-0.925 7.894-2.702 11.448l-102.4 204.8c-4.336 8.674-13.2 14.152-22.898 14.152h-307.2c-14.138 0-25.6-11.462-25.6-25.6v-179.2h-146.411l17.648 70.592c3.429 13.717-4.91 27.614-18.627 31.045-13.714 3.427-27.614-4.91-31.045-18.627l-20.752-83.010h-143.39l32.675 65.352c6.323 12.645 1.197 28.022-11.45 34.346-12.645 6.323-28.024 1.197-34.346-11.45l-51.2-102.4c-1.778-3.554-2.702-7.474-2.702-11.448v-51.2c0-41.786 20.131-78.955 51.2-102.33v-332.87h-25.6c-14.138 0-25.6-11.461-25.6-25.6s11.462-25.6 25.6-25.6h819.2c14.139 0 25.6 11.461 25.6 25.6s-11.461 25.6-25.6 25.6h-25.598v332.87c31.067 23.376 51.198 60.544 51.198 102.33zM588.8 460.8c-42.347 0-76.8 34.453-76.8 76.8v25.6h153.6v-25.6c0-42.347-34.453-76.8-76.8-76.8zM716.8 563.2h153.6v-25.6c0-42.347-34.453-76.8-76.8-76.8s-76.8 34.453-76.8 76.8v25.6zM854.578 614.4h-143.39l-38.4 153.6h104.99l76.8-153.6zM512 768h108.013l38.4-153.6h-146.413v153.6zM460.8 537.6c0-42.347-34.453-76.8-76.8-76.8s-76.8 34.453-76.8 76.8v25.6h153.6v-25.6zM102.4 537.6v25.6h153.6v-25.6c0-42.347-34.453-76.8-76.8-76.8s-76.8 34.453-76.8 76.8zM153.6 412.174c8.274-1.686 16.835-2.574 25.6-2.574 41.827 0 79.029 20.168 102.4 51.29 23.371-31.122 60.573-51.29 102.4-51.29s79.029 20.168 102.4 51.29c18.474-24.598 45.589-42.354 76.8-48.714v-309.776h-409.6v309.774zM819.202 102.4h-204.802v309.774c31.211 6.362 58.325 24.115 76.8 48.714 23.371-31.12 60.573-51.288 102.4-51.288 8.766 0 17.326 0.89 25.602 2.576v-309.776zM716.8 281.6c0-14.138-11.462-25.6-25.6-25.6s-25.6 11.462-25.6 25.6c0 14.138 11.462 25.6 25.6 25.6s25.6-11.462 25.6-25.6zM230.4 256c-6.552 0-13.102 2.499-18.102 7.499-9.997 9.997-9.997 26.206 0 36.203l51.2 51.2c9.998 9.997 26.206 9.997 36.205 0 9.997-9.997 9.997-26.206 0-36.203l-51.2-51.2c-5-5-11.55-7.499-18.102-7.499zM281.6 153.6c-6.552 0-13.102 2.499-18.101 7.499-9.998 9.997-9.998 26.206 0 36.203l153.6 153.6c9.997 9.997 26.206 9.997 36.203 0 9.998-9.997 9.998-26.206 0-36.203l-153.6-153.6c-5-5-11.55-7.499-18.102-7.499zM435.2 153.6c-6.552 0-13.102 2.499-18.102 7.499-9.997 9.997-9.997 26.206 0 36.203l51.2 51.2c9.998 9.997 26.206 9.997 36.205 0s9.998-26.206 0-36.203l-51.2-51.2c-5-5-11.55-7.499-18.102-7.499zM179.2 768h-102.4c-14.138 0-25.6 11.462-25.6 25.6v102.4c0 14.138 11.462 25.6 25.6 25.6h76.8v51.2h-76.8c-14.138 0-25.6 11.462-25.6 25.6s11.462 25.6 25.6 25.6h102.4c14.138 0 25.6-11.462 25.6-25.6v-102.4c0-14.138-11.462-25.6-25.6-25.6h-76.8v-51.2h76.8c14.138 0 25.6-11.462 25.6-25.6s-11.462-25.6-25.6-25.6zM384 1024c-14.138 0-25.6-11.462-25.6-25.6v-76.8h-51.2v76.8c0 14.138-11.462 25.6-25.6 25.6s-25.6-11.462-25.6-25.6v-102.4c0-14.138 11.462-25.6 25.6-25.6h76.8v-76.8c0-14.138 11.462-25.6 25.6-25.6s25.6 11.462 25.6 25.6v204.8c0 14.138-11.462 25.6-25.6 25.6z" />
<glyph unicode="&#xe74c;" glyph-name="bag2" d="M1023.84 28.75l-51.106 715.474c-0.957 13.397-12.102 23.776-25.534 23.776h-117.397l-197.302 197.301c-9.997 9.998-26.206 9.998-36.203 0l-25.6-25.6c-9.998-9.997-9.998-26.206 0-36.203 9.997-9.998 26.206-9.998 36.203 0l7.499 7.499 142.997-142.997h-81.194l-222.902 222.901c-9.997 9.998-26.206 9.998-36.203 0l-222.901-222.901h-117.397c-13.43 0-24.578-10.379-25.534-23.776l-51.2-716.8c-0.506-7.088 1.957-14.067 6.8-19.269 4.842-5.2 11.629-8.155 18.734-8.155h972.8c0.010 0 0.022 0 0.032 0 14.139 0 25.6 11.461 25.6 25.6 0 1.067-0.066 2.117-0.192 3.15zM435.2 936.597l168.597-168.597h-337.194l168.597 168.597zM53.094 51.2l47.542 665.6h104.155c0.005 0 0.011 0 0.016 0h718.557l47.542-665.6h-917.813zM512 307.2c-56.461 0-108.91 30.506-147.686 85.901-36.83 52.614-57.114 122.115-57.114 195.699 0 14.138 11.462 25.6 25.6 25.6s25.6-11.462 25.6-25.6c0-63.176 16.997-122.25 47.859-166.339 28.917-41.309 66.47-64.061 105.741-64.061s76.824 22.752 105.741 64.061c30.862 44.090 47.859 103.163 47.859 166.339 0 14.138 11.461 25.6 25.6 25.6s25.6-11.462 25.6-25.6c0-73.584-20.285-143.085-57.114-195.699-38.778-55.395-91.226-85.901-147.686-85.901z" />
<glyph unicode="&#xe74d;" glyph-name="cart" d="M409.6 0c-56.464 0-102.4 45.936-102.4 102.4s45.936 102.4 102.4 102.4 102.4-45.936 102.4-102.4-45.936-102.4-102.4-102.4zM409.6 153.6c-28.232 0-51.2-22.968-51.2-51.2s22.968-51.2 51.2-51.2 51.2 22.968 51.2 51.2-22.968 51.2-51.2 51.2zM768 0c-56.464 0-102.4 45.936-102.4 102.4s45.936 102.4 102.4 102.4 102.4-45.936 102.4-102.4-45.936-102.4-102.4-102.4zM768 153.6c-28.232 0-51.2-22.968-51.2-51.2s22.968-51.2 51.2-51.2 51.2 22.968 51.2 51.2-22.968 51.2-51.2 51.2zM898.021 795.312c-12.859 15.181-32.258 23.888-53.221 23.888h-626.846l-5.085 30.506c-6.72 40.315-43.998 71.894-84.869 71.894h-51.2c-14.138 0-25.6-11.462-25.6-25.6s11.462-25.6 25.6-25.6h51.2c15.722 0 31.781-13.603 34.366-29.112l85.566-513.395c6.718-40.314 43.997-71.893 84.867-71.893h512c14.139 0 25.6 11.461 25.6 25.6s-11.461 25.6-25.6 25.6h-512c-15.722 0-31.781 13.603-34.366 29.11l-12.63 75.784 510.206 44.366c39.69 3.451 75.907 36.938 82.458 76.234l34.366 206.194c3.448 20.677-1.952 41.243-14.813 56.424zM862.331 747.306l-34.366-206.194c-2.699-16.186-20.043-32.221-36.39-33.645l-514.214-44.714-50.874 305.246h618.314c5.968 0 10.995-2.054 14.155-5.782 3.157-3.73 4.357-9.024 3.376-14.912z" />
<glyph unicode="&#xe74e;" glyph-name="cart-empty" d="M409.6 0c-56.464 0-102.4 45.936-102.4 102.4s45.936 102.4 102.4 102.4 102.4-45.936 102.4-102.4-45.936-102.4-102.4-102.4zM409.6 153.6c-28.232 0-51.2-22.968-51.2-51.2s22.968-51.2 51.2-51.2 51.2 22.968 51.2 51.2-22.968 51.2-51.2 51.2zM768 0c-56.464 0-102.4 45.936-102.4 102.4s45.936 102.4 102.4 102.4 102.4-45.936 102.4-102.4-45.936-102.4-102.4-102.4zM768 153.6c-28.232 0-51.2-22.968-51.2-51.2s22.968-51.2 51.2-51.2 51.2 22.968 51.2 51.2-22.968 51.2-51.2 51.2zM901.021 818.702c-13.874 2.774-27.35-6.219-30.123-20.083l-41.16-205.795c-3.282-16.413-21.459-32.662-38.136-34.091l-522.77-44.808-55.963 335.781c-6.72 40.315-43.998 71.894-84.869 71.894h-51.2c-14.138 0-25.6-11.462-25.6-25.6s11.462-25.6 25.6-25.6h51.2c15.722 0 31.781-13.603 34.366-29.112l85.566-513.395c6.718-40.314 43.997-71.893 84.867-71.893h512c14.139 0 25.6 11.461 25.6 25.6s-11.461 25.6-25.6 25.6h-512c-15.722 0-31.781 13.603-34.366 29.11l-21.158 126.95 518.698 44.459c39.344 3.371 76.227 36.346 83.97 75.066l41.16 205.795c2.773 13.862-6.218 27.349-20.082 30.122z" />
<glyph unicode="&#xe755;" glyph-name="tag" d="M384 46.87c-20.554 0-39.84 7.966-54.306 22.43l-260.394 260.395c-14.466 14.464-22.432 33.75-22.432 54.304s7.966 39.84 22.434 54.306l439.594 439.592c24.91 24.914 70.269 43.702 105.504 43.702h230.4c42.349 0 76.8-34.453 76.8-76.8v-230.4c0-35.232-18.787-80.59-43.699-105.504l-439.595-439.595c-14.466-14.466-33.752-22.43-54.306-22.43zM614.4 870.4c-21.246 0-54.278-13.682-69.299-28.704l-439.595-439.595c-4.795-4.795-7.435-11.224-7.435-18.101s2.64-13.306 7.435-18.099l260.394-260.397c4.795-4.794 11.224-7.434 18.101-7.434s13.307 2.64 18.102 7.435l439.594 439.592c15.021 15.024 28.704 48.058 28.704 69.302v230.4c0 14.115-11.485 25.6-25.6 25.6h-230.4zM742.4 665.6c-42.349 0-76.8 34.453-76.8 76.8s34.451 76.8 76.8 76.8 76.8-34.453 76.8-76.8-34.451-76.8-76.8-76.8zM742.4 768c-14.115 0-25.6-11.485-25.6-25.6s11.485-25.6 25.6-25.6 25.6 11.485 25.6 25.6-11.485 25.6-25.6 25.6z" />
<glyph unicode="&#xe756;" glyph-name="tags" d="M793.6 614.4c-42.349 0-76.8 34.453-76.8 76.8s34.451 76.8 76.8 76.8 76.8-34.453 76.8-76.8-34.451-76.8-76.8-76.8zM793.6 716.8c-14.115 0-25.6-11.485-25.6-25.6s11.485-25.6 25.6-25.6 25.6 11.485 25.6 25.6-11.485 25.6-25.6 25.6zM896 870.4h-179.2c-35.235 0-80.594-18.789-105.504-43.701l-388.394-388.394c-14.466-14.466-22.434-33.752-22.434-54.306s7.966-39.84 22.432-54.304l133.234-133.234-56.078-32.378c-5.874-3.39-12.768-4.275-19.41-2.498-6.643 1.779-12.17 5.994-15.56 11.867l-184.125 318.914c-7.058 12.226-2.854 27.912 9.37 34.97l408.869 236.061c12.243 7.069 16.438 22.726 9.37 34.97-7.070 12.246-22.728 16.437-34.97 9.37l-408.869-236.058c-17.717-10.229-30.403-26.795-35.723-46.65s-2.616-40.544 7.613-58.262l184.126-318.915c10.229-17.717 26.795-30.403 46.65-35.723 6.651-1.781 13.397-2.664 20.093-2.664 13.291 0 26.389 3.475 38.17 10.277l67.96 39.237 38.477-38.478c14.466-14.466 33.75-22.432 54.306-22.432s39.84 7.966 54.304 22.432l388.395 388.395c24.912 24.914 43.699 70.27 43.699 105.504v179.2c0 42.347-34.451 76.8-76.8 76.8zM921.6 614.4c0-21.246-13.683-54.278-28.704-69.301l-388.395-388.395c-4.795-4.794-11.224-7.434-18.101-7.434s-13.307 2.64-18.101 7.434l-209.194 209.197c-4.795 4.794-7.435 11.222-7.435 18.099s2.64 13.306 7.435 18.101l388.395 388.394c15.021 15.024 48.053 28.706 69.299 28.706h179.2c14.115 0 25.6-11.485 25.6-25.6v-179.2z" />
<glyph unicode="&#xe759;" glyph-name="credit-card2" d="M947.2 870.4h-870.4c-42.347 0-76.8-34.453-76.8-76.8v-563.2c0-42.349 34.453-76.8 76.8-76.8h870.4c42.349 0 76.8 34.451 76.8 76.8v563.2c0 42.347-34.451 76.8-76.8 76.8zM76.8 819.2h870.4c14.115 0 25.6-11.485 25.6-25.6v-25.6h-921.6v25.6c0 14.115 11.485 25.6 25.6 25.6zM972.8 716.8v-153.6h-921.6v153.6h921.6zM947.2 204.8h-870.4c-14.115 0-25.6 11.485-25.6 25.6v281.6h921.6v-281.6c0-14.115-11.485-25.6-25.6-25.6zM870.4 307.2h51.2v-51.2h-51.2v51.2zM665.6 307.2h153.6v-51.2h-153.6v51.2zM512 307.2h102.4v-51.2h-102.4v51.2z" />
</font>
</defs>
</svg>
